<svg xmlns="http://www.w3.org/2000/svg" preserveAspectRatio="xMidYMid meet" data-bbox="0.673 0.367 222.436 35.366" viewBox="0.673 0.367 222.436 35.366" height="36" width="224" data-type="shape" role="presentation" aria-hidden="true">
    <g>
        <path d="M18.4 35.733c-2.373 0-4.702-.474-6.901-1.423-2.114-.906-4.012-2.157-5.65-3.796-1.596-1.638-2.89-3.493-3.796-5.606a17.44 17.44 0 0 1-1.38-6.772c0-2.372.474-4.658 1.423-6.814a17.61 17.61 0 0 1 3.839-5.564c1.639-1.639 3.536-2.89 5.65-3.795 2.2-.906 4.528-1.38 6.944-1.38 4.7 0 9.1 1.854 12.378 5.218 1.596 1.596 2.803 3.494 3.666 5.564.906 2.156 1.337 4.442 1.337 6.771 0 2.372-.431 4.658-1.337 6.772a16.962 16.962 0 0 1-3.71 5.607c-3.32 3.364-7.72 5.218-12.464 5.218Zm.129-30.838c-1.812 0-3.58.345-5.262 1.036a13.303 13.303 0 0 0-4.313 2.89c-1.25 1.207-2.243 2.63-2.89 4.226-.733 1.596-1.078 3.32-1.078 5.09 0 1.768.345 3.45 1.035 5.089.69 1.595 1.639 3.019 2.89 4.226 2.544 2.545 5.909 3.968 9.488 3.968 3.58 0 6.901-1.423 9.403-3.925 1.207-1.207 2.113-2.63 2.803-4.226.647-1.64.992-3.364.992-5.133 0-3.536-1.337-6.857-3.752-9.316-2.459-2.544-5.78-3.925-9.316-3.925Zm47.775 21.479C65.873 31.722 61.862 35 56.126 35H41.289a2.16 2.16 0 0 1-1.51-.604c-.388-.431-.646-.949-.646-1.553V3.256c0-1.207.992-2.156 2.156-2.156h12.767c5.65 0 9.574 2.545 10.308 7.763.56 4.055-1.165 6.556-3.192 8.023 2.847.992 5.52 4.614 5.132 9.488Zm-4.313-.388c.432-4.227-1.897-6.297-6.124-6.297h-.13l-3.364.043h-.043c-1.164 0-2.113-.992-2.156-2.156 0-1.208.992-2.157 2.156-2.157l3.278-.043c3.192-.345 4.874-2.502 4.486-5.995-.345-2.804-2.373-3.968-6.038-3.968h-10.61v25.23h12.68c3.493 0 5.564-1.466 5.865-4.657ZM101.064 35c-1.164 0-2.2-.992-2.2-2.157v-21.78l-10.61 17.813c-.388.56-1.034.862-1.725.862-.69 0-1.337-.302-1.768-.862L74.108 11.063v21.78A2.163 2.163 0 0 1 71.952 35c-1.165 0-2.157-.992-2.157-2.157V3.17c0-.949.604-1.768 1.51-2.07.862-.302 1.854.043 2.415.776l12.81 21.608L99.296 1.876c.604-.733 1.553-1.078 2.458-.776a2.192 2.192 0 0 1 1.467 2.07v29.673A2.163 2.163 0 0 1 101.064 35Zm18.307.69c-1.121 0-2.285-.086-3.407-.259-2.07-.345-4.011-.949-5.52-1.811-1.898-.992-3.149-2.33-3.666-3.796-.518-1.51 1.078-3.407 2.631-2.63.388.215.646.603.905.948 1.553 1.898 3.968 2.718 6.297 3.106 1.984.302 4.011.258 5.65-.087 2.027-.43 3.968-1.466 4.744-3.45.389-.992.475-2.113.13-3.105-.992-2.933-4.658-4.011-7.764-4.658-2.07-.432-4.14-.95-6.081-1.769-2.07-.82-4.14-2.07-5.305-4.054-1.423-2.372-1.164-6.124-.302-7.893C110.314.971 115.404.367 118.38.367c2.242 0 4.571.388 6.426 1.121 2.372.906 4.227 2.459 4.787 4.097.259.69.087 1.467-.388 2.028-.517.647-1.466.948-2.243.517-.215-.13-.388-.345-.603-.517-.863-.95-2.157-1.855-3.753-2.459-1.337-.517-2.803-.56-4.226-.56-3.365 0-7.203 1.293-7.203 5.218 0 3.623 3.148 4.701 10.351 6.47 9.23 2.242 10.437 7.332 9.575 11.645-1.294 6.426-8.885 7.763-11.732 7.763Zm36.417-.69h-18.805a2.163 2.163 0 0 1-2.156-2.157V3.256c0-1.207.992-2.156 2.156-2.156 1.208 0 2.157.949 2.157 2.156v27.431h16.648c1.207 0 2.156.949 2.156 2.156A2.136 2.136 0 0 1 155.788 35Zm35.634-.172c-.992.43-2.286.086-2.89-1.079l-2.976-6.642c-2.803-.69-5.606-.733-8.324-.13-2.199.432-4.356 1.252-6.469 2.546-2.157 1.337-4.399 3.105-6.038 4.7-.82.82-1.898 1.079-2.804.518-.948-.604-.819-1.811-.388-2.803L175.162 2.35c.388-.777 1.122-1.251 1.984-1.251.82 0 1.639.518 1.941 1.25l13.413 29.59a2.215 2.215 0 0 1-1.078 2.89ZM177.103 8.431l-8.281 17.64c2.286-1.294 5.305-2.458 7.72-2.933 2.329-.517 4.702-.604 7.074-.388l-6.513-14.319Zm45.968 17.942C222.64 31.722 218.629 35 212.892 35h-14.836a2.155 2.155 0 0 1-1.51-.604c-.388-.431-.647-.949-.647-1.553V3.256c0-1.207.992-2.156 2.157-2.156h12.766c5.65 0 9.575 2.545 10.308 7.763.561 4.055-1.164 6.556-3.191 8.023 2.846.992 5.52 4.614 5.132 9.488Zm-4.313-.388c.431-4.227-1.898-6.297-6.124-6.297h-.13l-3.364.043h-.043c-1.165 0-2.113-.992-2.157-2.156 0-1.208.992-2.157 2.157-2.157l3.278-.043c3.191-.345 4.873-2.502 4.485-5.995-.345-2.804-2.372-3.968-6.038-3.968h-10.61v25.23h12.68c3.494 0 5.564-1.466 5.866-4.657Z" fill="#03a9f4"/>
    </g>
</svg>