<svg preserveAspectRatio="xMidYMid meet" data-bbox="0.001 0 596.041 550" xmlns="http://www.w3.org/2000/svg" viewBox="0.001 0 596.041 550" height="550" width="597" data-type="color" role="presentation" aria-hidden="true" aria-label="">
    <g>
        <path fill="#000000" d="M280.033 530.133H12.664a.682.682 0 0 1 0-1.364h267.369a.682.682 0 0 1 .682.682.7.7 0 0 1-.682.682Z" data-color="1"></path>
        <path fill="#000000" d="M595.336 530.133H289.431a.681.681 0 0 1 0-1.364h305.905a.681.681 0 0 1 .682.682.697.697 0 0 1-.682.682Z" data-color="1"></path>
        <path fill="#ffffff" d="m410.586 84.214 2.051-21.11a11.987 11.987 0 0 0 7.865.546 51.009 51.009 0 0 0 10.159-3.763l-.583 15.954s-14.035 9.182-19.492 8.373Z" data-color="2"></path>
        <path fill="#000000" d="M411.301 85.21c-.281.02-.564.02-.846 0a.942.942 0 0 1-.79-1.015l2.032-21.11a.933.933 0 0 1 .485-.744.94.94 0 0 1 .888-.008 11.289 11.289 0 0 0 7.225.451 50.035 50.035 0 0 0 9.934-3.763.94.94 0 0 1 .94 0 .942.942 0 0 1 .433.828l-.583 15.955a.937.937 0 0 1-.414.752c-1.411.979-13.302 8.655-19.304 8.655Zm2.145-20.695-1.881 18.814c4.496-.225 13.678-5.55 17.535-8.014l.508-13.942a48.393 48.393 0 0 1-8.956 3.199 14.562 14.562 0 0 1-7.281-.132l.075.075Z" data-color="1"></path>
        <path fill="#000000" d="M472.504 245.527s6.547 148.784 8.203 162.255c1.656 13.471.263 67.336 2.916 73.375a147.182 147.182 0 0 1 5.475 18.363l-.113 15.296s-2.897 5.513-7.111 7.356c-4.215 1.844-19.342 7.959-22.277 11.628-2.935 3.668 5.08 6.114 11.289 6.114s20.094-3.048 23.142-3.763c3.047-.715 13.452 0 18.908-1.881 5.456-1.882 6.623-3.763 7.149-6.115.527-2.351 2.653-91.193 2.653-91.193l-7.526-122.424-1.392-70.591-41.391-7.808.075 9.388Z" data-color="1"></path>
        <path fill="#000000" d="M470.811 540.93c-4.045 0-10.988-1.166-12.512-4.308a2.988 2.988 0 0 1 .565-3.33c2.765-3.462 15.051-8.655 20.846-11.157l1.787-.753a17.033 17.033 0 0 0 6.548-6.735l.112-14.939a142.408 142.408 0 0 0-5.399-18.099c-1.581-3.65-1.769-21.655-1.976-40.733-.15-13.979-.301-27.187-.997-32.982-1.656-13.339-8.146-160.824-8.222-162.31l-.282-9.182a.97.97 0 0 1 .32-.752.994.994 0 0 1 .79-.207l41.392 7.808a.939.939 0 0 1 .752.922l1.392 70.572 7.526 122.387c-.226 9.162-2.126 88.991-2.672 91.456-.62 2.86-2.107 4.892-7.77 6.811a53.612 53.612 0 0 1-13.659 1.524 43.104 43.104 0 0 0-5.362.338l-1.392.283c-4.76.997-16.256 3.386-21.787 3.386Zm2.634-295.384c0 1.882 6.566 148.915 8.203 162.179.715 5.889.865 19.153 1.016 33.189.188 17.215.395 36.706 1.881 39.999a142.69 142.69 0 0 1 5.532 18.532.896.896 0 0 1 0 .207l-.113 15.314a.864.864 0 0 1-.113.433c-.132.226-3.086 5.814-7.526 7.771l-1.881.752c-5.287 2.258-17.648 7.526-20.113 10.593-.545.677-.451 1.072-.32 1.354.809 1.693 5.964 3.236 10.8 3.236 5.343 0 17.121-2.446 21.561-3.368l1.392-.282a43.663 43.663 0 0 1 5.644-.376 52.927 52.927 0 0 0 13.17-1.43c5.344-1.881 6.096-3.462 6.529-5.437.433-2.314 2.051-66.49 2.634-91.005l-7.526-122.293-1.373-69.857-39.51-7.526.113 8.015Z" data-color="1"></path>
        <path fill="#000000" d="M503.058 526.876c-6.133-.358-21.184-4.628-21.184-4.628-4.234 1.881-19.342 7.958-22.277 11.627-2.935 3.669 5.08 6.114 11.289 6.114s20.094-3.047 23.142-3.762c3.047-.715 13.452 0 18.908-1.882 5.456-1.881 6.623-3.763 7.149-6.114v-5.024c-4.101 1.449-12.492 3.932-17.027 3.669Z" data-color="1"></path>
        <path fill="#000000" d="M470.811 540.931c-4.045 0-10.988-1.167-12.512-4.309a2.991 2.991 0 0 1 .565-3.33c2.765-3.462 15.051-8.655 20.846-11.138l1.787-.772a.885.885 0 0 1 .621 0c.151 0 15.052 4.252 20.978 4.591 4.478.282 13.17-2.352 16.651-3.499a.917.917 0 0 1 .828.131.95.95 0 0 1 .395.753 37.685 37.685 0 0 1 0 5.249c-.621 2.86-2.108 4.892-7.771 6.811a53.562 53.562 0 0 1-13.659 1.524 42.914 42.914 0 0 0-5.362.339l-1.392.282c-4.948.978-16.444 3.368-21.975 3.368Zm11.119-17.686-1.486.64c-5.287 2.239-17.648 7.525-20.113 10.573-.545.678-.451 1.073-.32 1.355.809 1.693 5.964 3.236 10.8 3.236 5.343 0 17.121-2.446 21.561-3.368l1.392-.282a43.663 43.663 0 0 1 5.644-.376 52.974 52.974 0 0 0 13.17-1.43c5.344-1.881 6.096-3.462 6.529-5.437v-3.537c-4.628 1.448-11.891 3.461-16.105 3.198-5.738-.339-18.796-3.932-21.072-4.591v.019Z" data-color="1"></path>
        <path fill="#000000" d="M520.01 528.362v-.922c-.703.324-1.376.708-2.013 1.148-3.105 2.164-14.581 3.104-19.228 3.405-4.648.301-15.786 5.287-29.407 4.403-5.851-.395-8.674-1.261-10.009-2.107-2.126 3.48 5.531 5.757 11.458 5.757 5.926 0 20.093-3.048 23.141-3.763 3.048-.715 13.452 0 18.908-1.882 5.457-1.881 6.623-3.649 7.15-6.039Z" data-color="1"></path>
        <path fill="#000000" d="M470.811 540.93c-4.892 0-10.875-1.449-12.38-4.12a2.878 2.878 0 0 1 .132-3.067.96.96 0 0 1 1.298-.301c1.035.677 3.537 1.543 9.558 1.881a69.6 69.6 0 0 0 23.085-2.991 39.646 39.646 0 0 1 6.265-1.355c9.915-.658 16.745-1.881 18.814-3.236a17.298 17.298 0 0 1 2.126-1.242.942.942 0 0 1 1.355.866c.028.369.028.741 0 1.11-.621 2.86-2.107 4.892-7.77 6.811a53.62 53.62 0 0 1-13.66 1.524 43.116 43.116 0 0 0-5.362.338l-1.392.283c-5.042 1.11-16.538 3.499-22.069 3.499Zm-10.856-5.324c.03.097.067.191.113.282.941 1.693 5.964 3.161 10.743 3.161 5.343 0 17.121-2.446 21.561-3.368l1.392-.282a43.858 43.858 0 0 1 5.645-.377 52.936 52.936 0 0 0 13.17-1.429c4.365-1.468 5.644-2.841 6.246-4.365l-.207.131c-2.954 2.07-12.342 3.086-19.717 3.575-2.001.276-3.976.71-5.908 1.298a72.74 72.74 0 0 1-23.687 3.048 31.319 31.319 0 0 1-9.351-1.674Z" data-color="1"></path>
        <path fill="#000000" d="M508.948 321.311s9.407 87.9 10.912 98.474c1.505 10.574 6.961 78.437 8.203 82.331a92.745 92.745 0 0 1 2.088 13.359l-2.013 6.114a39.23 39.23 0 0 1-9.087 11.684c-7.018 6.679-13.641 8.353-10.216 11.138 3.424 2.784 5.644 5.004 21.787 2.784 16.142-2.22 21.542-5.023 29.801-7.789 8.26-2.765 4.892-3.349 4.817-6.133-.075-2.785.282-8.335.282-8.335s-.113-38.4-2.126-49.519-1.317-58.324-.395-63.969c.922-5.644-.207-59.528-.207-59.528l.414-97.195-54.75-7.224" data-color="1"></path>
        <path fill="#000000" d="M519.86 549.039c-6.849 0-8.937-1.712-11.402-3.763l-.225-.188a2.834 2.834 0 0 1-1.28-2.295c0-1.618 1.882-2.841 4.478-4.723a59.407 59.407 0 0 0 6.961-5.531 38.893 38.893 0 0 0 8.862-11.289l1.881-5.87a88.315 88.315 0 0 0-2.032-12.963c-.677-2.144-2.427-20.902-4.816-47.148-1.43-15.861-2.804-30.856-3.424-35.333-1.43-10.48-10.819-97.628-10.913-98.512a.95.95 0 0 1 .838-1.044.943.943 0 0 1 1.044.837c.094.884 9.407 88.013 10.893 98.455.621 4.534 1.995 19.529 3.443 35.427 1.882 19.868 4.045 44.628 4.741 46.754a94.342 94.342 0 0 1 2.126 13.565.883.883 0 0 1 0 .376l-2.032 6.115c-.112.282-2.257 5.324-9.407 12.079a60.24 60.24 0 0 1-7.187 5.644c-1.787 1.261-3.65 2.578-3.668 3.236 0 .188.206.47.583.771l.226.189c3.104 2.521 5.55 4.515 20.827 2.389a105.853 105.853 0 0 0 25.286-6.058l4.44-1.562c3.763-1.26 4.742-1.881 4.911-2.333.169-.451 0-.451-.226-.79a5.857 5.857 0 0 1-.508-2.07c0-2.803.282-8.203.282-8.447 0-.245-.131-38.362-2.107-49.275-1.975-10.912-1.411-58.324-.395-64.307.903-5.418-.207-58.813-.226-59.359l.414-96.386-53.921-7.13a.922.922 0 0 1-.809-1.054.939.939 0 0 1 1.053-.809l54.75 7.244a.92.92 0 0 1 .809.922l-.414 97.194c0 2.183 1.147 54.11.207 59.698-.828 4.892-1.656 52.511.376 63.649 2.032 11.138 2.145 48.108 2.145 49.688 0 .113-.376 5.644-.282 8.316.035.49.163.969.376 1.411.196.346.314.731.346 1.127.033.396-.021.795-.158 1.168-.527 1.129-2.107 2.014-6.02 3.331-1.543.508-2.973 1.034-4.403 1.542a107.82 107.82 0 0 1-25.569 6.284 81.26 81.26 0 0 1-10.874.828Z" data-color="1"></path>
        <path fill="#000000" d="M565.221 533.273s-16.237-2.785-22.935-3.895c-6.697-1.11-14.167-7.789-14.167-7.789a39.23 39.23 0 0 1-9.087 11.684c-7.018 6.679-13.64 8.353-10.216 11.138 3.424 2.784 5.644 5.004 21.787 2.784 16.142-2.22 21.542-5.023 29.802-7.789 8.259-2.765 4.891-3.349 4.816-6.133Z" data-color="1"></path>
        <path fill="#000000" d="M519.86 549.039c-6.849 0-8.937-1.712-11.402-3.763l-.225-.188a2.834 2.834 0 0 1-1.28-2.295c0-1.618 1.882-2.841 4.478-4.723a59.407 59.407 0 0 0 6.961-5.531 38.88 38.88 0 0 0 8.862-11.289.877.877 0 0 1 .658-.545.926.926 0 0 1 .847.207s7.319 6.51 13.678 7.525c6.717 1.111 22.934 3.895 22.934 3.895a.938.938 0 0 1 .791.903c.035.49.163.969.376 1.411.196.346.314.731.346 1.127.033.397-.021.795-.158 1.169-.527 1.128-2.107 2.013-6.02 3.33-1.543.508-2.973 1.034-4.403 1.542a107.772 107.772 0 0 1-25.569 6.284 81.315 81.315 0 0 1-10.874.941Zm8.579-25.945a45.533 45.533 0 0 1-8.749 10.875 60.037 60.037 0 0 1-7.187 5.644c-1.787 1.261-3.65 2.578-3.668 3.236 0 .188.207.471.583.772l.226.188c3.104 2.521 5.55 4.515 20.827 2.389a105.84 105.84 0 0 0 25.192-6.039l4.44-1.562c3.763-1.26 4.742-1.881 4.911-2.333.169-.451 0-.451-.226-.79a6.628 6.628 0 0 1-.414-1.298l-22.238-3.763c-5.569-1.016-11.458-5.475-13.697-7.319Z" data-color="1"></path>
        <path fill="#000000" d="m565.221 533.273-.678-.113a87.368 87.368 0 0 0-9.877 3.763c-4.045 2.163-25.757 7.526-34.75 7.751a28.976 28.976 0 0 1-11.947-2.22c-.207.621 0 1.242.847 1.882 3.424 2.784 5.644 5.004 21.786 2.784 16.143-2.22 21.543-5.023 29.802-7.789 8.26-2.766 4.892-3.274 4.817-6.058Z" data-color="1"></path>
        <path fill="#000000" d="M519.86 549.039c-6.849 0-8.937-1.712-11.402-3.763l-.226-.188a2.58 2.58 0 0 1-1.147-2.954.947.947 0 0 1 .508-.564.906.906 0 0 1 .734 0 27.795 27.795 0 0 0 11.551 2.145c9.013-.301 30.423-5.532 34.337-7.639a84.97 84.97 0 0 1 10.009-3.857.818.818 0 0 1 .47 0l.677.113a.943.943 0 0 1 .791.903c.035.49.163.969.376 1.411a2.739 2.739 0 0 1 .188 2.296c-.527 1.129-2.107 2.013-6.021 3.33-1.542.508-2.972 1.035-4.402 1.543a107.869 107.869 0 0 1-25.569 6.284 81.48 81.48 0 0 1-10.874.94Zm-9.69-4.76c2.898 2.314 5.889 3.97 20.301 1.976a105.854 105.854 0 0 0 25.192-6.096l4.44-1.562c3.763-1.26 4.742-1.881 4.911-2.333.169-.451 0-.451-.226-.79a9.408 9.408 0 0 1-.395-1.166 83.47 83.47 0 0 0-9.294 3.574c-4.026 2.183-25.945 7.526-35.145 7.865a29.201 29.201 0 0 1-9.784-1.468Z" data-color="1"></path>
        <path fill="#000000" d="M500.519 114.128s19.153-12.342 39.058-9.651c19.906 2.69 17.968 9.407 17.968 9.407s-17.516 40.413-22.577 68.672c-5.061 28.259-7.526 65.85-7.526 65.85s-1.882 5.305-26.547 1.317c-24.666-3.989-21.43-14.958-21.43-14.958s7.244-65.135 14.412-80.092c7.168-14.957 6.642-40.545 6.642-40.545Z" data-color="1"></path>
        <path fill="#000000" d="M516.473 252.188a101.295 101.295 0 0 1-15.766-1.506c-10.893-1.768-17.93-5.061-20.921-9.839a8.114 8.114 0 0 1-1.242-6.322c.263-2.502 7.281-65.304 14.449-80.243 6.98-14.581 6.585-39.867 6.585-40.131a1.026 1.026 0 0 1 .433-.809c.79-.508 19.68-12.493 39.679-9.802 9.652 1.298 15.691 3.763 17.968 7.187.364.491.623 1.052.763 1.647.139.596.154 1.213.046 1.815-.226.527-17.592 40.77-22.577 68.597-4.986 27.826-7.526 65.323-7.526 65.699a.595.595 0 0 1 0 .245c-.226.733-1.938 3.462-11.891 3.462Zm-15.051-137.533c0 3.876-.094 26.472-6.792 40.432-7.018 14.656-14.242 79.152-14.318 79.81a6.481 6.481 0 0 0 1.054 5.024c1.881 2.916 6.773 6.829 19.586 8.899 21.147 3.405 24.985 0 25.474-.678.207-3.179 2.709-38.851 7.526-65.699 5.023-27.92 22.351-68.164 22.577-68.879a3.246 3.246 0 0 0-.677-1.882c-1.148-1.655-4.817-4.665-16.557-6.246-17.516-2.408-34.882 7.451-37.817 9.219h-.056Z" data-color="1"></path>
        <path fill="#ffffff" d="M517.038 115.916s-24.064 64.928-26.34 86.846c-2.277 21.919-5.946 168.727-5.908 169.799.038 1.073-.508 9.407-.508 9.407s-16.933-14.073-20.338-18.137l-3.368-4.063s4.233-102.952 4.233-119.735c0-16.782 10.875-75.257 10.875-75.257l-.452-5.418s-25.248-2.427-36.462-6.491c-11.213-4.064-23.837-8.937-26.678-13.528-2.841-4.59-10.706-30.102-11.063-32.473-.358-2.371-3.594-19.755-3.594-19.755s28.504-13.81 30.367-14.9a34.34 34.34 0 0 0 5.268-4.874s2.257 37.083 2.276 37.892c.019.809 14.713 11.646 30.667 11.101 15.955-.546 25.776-6.491 35.465-8.109a34.6 34.6 0 0 1 17.102 1.335l-1.542 6.36Z" data-color="2"></path>
        <path fill="#000000" d="M484.282 382.984a.917.917 0 0 1-.602-.225c-.697-.584-17.065-14.168-20.452-18.25l-3.367-4.064a.922.922 0 0 1-.226-.64c0-1.035 4.233-103.14 4.233-119.696 0-16.557 10.16-71.495 10.856-75.257l-.357-4.497c-4.422-.452-25.701-2.766-35.917-6.472-11.552-4.177-24.139-9.05-27.168-13.923-3.029-4.873-10.818-30.272-11.175-32.831-.358-2.558-3.575-19.548-3.594-19.717a.907.907 0 0 1 .508-1.016c9.859-4.779 28.861-14.016 30.31-14.863a31.804 31.804 0 0 0 5.042-4.685.942.942 0 0 1 .997-.263.978.978 0 0 1 .64.828c0 1.467 2.088 34.26 2.276 37.628 1.6 1.731 15.184 10.969 29.689 10.461a81.665 81.665 0 0 0 24.233-5.024 75.707 75.707 0 0 1 11.119-3.085 35.243 35.243 0 0 1 17.592 1.411.94.94 0 0 1 .564 1.091l-1.543 6.265a.24.24 0 0 1 0 .113c-.225.64-24.044 65.041-26.34 86.546-2.295 21.505-5.888 168.651-5.888 169.686 0 1.035-.452 8.692-.508 9.557a.927.927 0 0 1-.565.791.853.853 0 0 1-.357.131Zm-22.747-23.442 3.142 3.763c2.709 3.254 14.638 13.339 18.814 16.82.189-3.18.396-6.905.377-7.526-.019-.621 3.612-147.974 5.907-169.931 2.258-21.674 25.155-83.723 26.34-87.016l1.317-5.381a34.758 34.758 0 0 0-15.822-1.034 75.05 75.05 0 0 0-10.837 3.01 82.757 82.757 0 0 1-24.722 5.117c-14.073.527-27.808-7.92-30.95-10.855a1.77 1.77 0 0 1-.696-1.148c0-.602-1.336-22.577-2.145-35.747a23.296 23.296 0 0 1-3.988 3.462c-1.731.997-25.437 12.492-29.783 14.6.62 3.31 3.16 16.932 3.48 19.096.32 2.164 8.166 27.657 10.912 32.097 2.935 4.741 18.062 10.216 26.209 13.17 10.987 3.97 35.991 6.416 36.236 6.435a.956.956 0 0 1 .847.865l.451 5.419c.01.081.01.163 0 .244-.113.583-10.837 58.569-10.856 75.069-.018 16.143-3.969 112.716-4.233 119.471Z" data-color="1"></path>
        <path fill="#000000" d="M422.778 134.015a.96.96 0 0 1-.884-.583.94.94 0 0 1 .545-1.223c4.535-1.787 10.16-12.662 11.947-16.707a.94.94 0 0 1 1.713.752c-.264.621-6.774 15.259-12.982 17.705l-.339.056Z" data-color="1"></path>
        <path fill="#000000" d="M418.79 126.376a.979.979 0 0 1-.866-.545.944.944 0 0 1 .452-1.242 67.99 67.99 0 0 0 10.874-7.206.96.96 0 0 1 1.336.151.94.94 0 0 1-.15 1.317 69.623 69.623 0 0 1-11.289 7.525 1.02 1.02 0 0 1-.357 0Z" data-color="1"></path>
        <path fill="#000000" d="M399.561 96.8a.975.975 0 0 1-.884-.602.945.945 0 0 1 .231-1.027.944.944 0 0 1 .315-.196c.263-.112 27.412-10.63 33.583-18.325a.936.936 0 0 1 .637-.408.94.94 0 0 1 1.033 1.245.95.95 0 0 1-.202.33c-6.491 8.09-33.245 18.475-34.374 18.908a1.094 1.094 0 0 1-.339.075Z" data-color="1"></path>
        <path fill="#000000" d="M531.449 21.299s-1.43-4.478-8.955-2.296c-7.526 2.183-35.428 21.675-34.713 28.222.715 6.547 10.894 21.655 11.703 23.65.809 1.994 5.531 17.421 5.456 22.915-.075 5.494-2.22 8.203-4.214 8.467a24.62 24.62 0 0 1-5.231-.264s3.048 9.708 9.859 12.211c6.811 2.502 10.498 1.241 13.885-1.505a17.632 17.632 0 0 0 7.375-10.706c2.032-6.472-8.56-50.29-8.56-50.29s26.227 34.355 33.734 35.107c7.506.753 18.249-20.921 16.029-27.883-2.22-6.961-2.878-20.169-8.88-29.143-6.002-8.974-19.51-14.205-27.488-8.485Z" data-color="1"></path>
        <path fill="#000000" d="M511.789 116.461a20.327 20.327 0 0 1-6.849-1.392c-7.149-2.615-10.291-12.398-10.423-12.812a.947.947 0 0 1 1.054-1.205 24.35 24.35 0 0 0 4.967.245c1.336-.169 3.33-2.314 3.386-7.526.057-5.211-4.496-20.357-5.381-22.577-.188-.451-1.072-1.881-2.107-3.669-3.424-5.644-9.125-15.22-9.67-20.244-.79-7.3 27.958-26.96 35.389-29.143 5.965-1.75 8.58.395 9.614 1.881a15.824 15.824 0 0 1 11.289-1.655 26.341 26.341 0 0 1 16.651 10.95c4.271 6.34 5.907 14.769 7.224 21.523.584 2.954 1.129 5.738 1.788 7.846 1.674 5.286-3.312 17.365-8.561 23.837-3.01 3.763-5.907 5.513-8.466 5.268-6.491-.658-24.628-22.99-31.74-31.984 2.634 11.289 9.294 41.09 7.526 46.565a18.379 18.379 0 0 1-7.526 11.044l-.15.113a12.034 12.034 0 0 1-8.015 2.935Zm-14.939-13.358c1.11 2.691 3.97 8.448 8.749 10.198 6.453 2.351 9.859 1.166 12.982-1.355l.15-.113a16.748 16.748 0 0 0 6.924-10.141c1.599-5.098-5.644-37.628-8.598-49.782a.94.94 0 0 1 1.655-.79c10.461 13.677 27.883 34.223 33.095 34.73 1.881.189 4.271-1.43 6.81-4.571 5.438-6.698 9.596-17.836 8.241-22.088a77.934 77.934 0 0 1-1.881-8.053c-1.28-6.585-2.898-14.807-6.943-20.846a24.945 24.945 0 0 0-15.428-10.14 13.899 13.899 0 0 0-10.648 1.88.98.98 0 0 1-.847.132.954.954 0 0 1-.602-.602c0-.17-1.317-3.556-7.864-1.637-8.241 2.409-34.638 21.693-34.054 27.13.508 4.61 6.303 14.3 9.407 19.492 1.298 2.201 1.994 3.368 2.22 3.913.734 1.882 5.644 17.573 5.531 23.274 0 6.058-2.577 9.087-5.023 9.407-1.29.116-2.588.103-3.876-.038Z" data-color="1"></path>
        <path fill="#ffffff" d="M511.299 37.818s-6.396 2.239-8.297 5.475a42.838 42.838 0 0 0-3.763 20.413 255.349 255.349 0 0 0 4.365 27.883 9.574 9.574 0 0 0 8.937 6.98 31.087 31.087 0 0 0 6.698-.997l1.373 4.214s-4.797 13.17-3.518 14.186c1.28 1.016 6.19 6.98 13.17 5.738 6.98-1.241 13.923-8.974 16.049-12.21 2.126-3.236 2.22-31.871 3.104-35.352.884-3.48-1.524-1.242-10.028-10.216-1.166-1.204-7.225-5.87-8.692-7.206-9.426-8.617-19.398-18.908-19.398-18.908Z" data-color="2"></path>
        <path fill="#000000" d="M528.251 122.764c-5.362 0-9.313-3.763-11.1-5.456-.301-.282-.527-.508-.697-.64-.489-.395-1.881-1.411 3.105-14.957l-.997-3.086a29.76 29.76 0 0 1-6.077.81 10.515 10.515 0 0 1-9.84-7.658 253.315 253.315 0 0 1-4.403-28.052 43.753 43.753 0 0 1 3.951-20.978c2.051-3.5 8.523-5.795 8.805-5.889a.905.905 0 0 1 .979.226c0 .113 10.046 10.442 19.247 18.814.602.565 2.088 1.75 3.668 3.03 2.145 1.711 4.365 3.499 5.061 4.232a39.354 39.354 0 0 0 8.204 6.905c1.73 1.11 2.69 1.731 2.069 4.177-.32 1.223-.546 6.34-.79 11.759-.565 12.68-1.073 21.825-2.446 23.894-2.352 3.556-9.52 11.289-16.669 12.606a11.19 11.19 0 0 1-2.07.263Zm-10.498-7.526.696.621c1.881 1.882 6.077 5.776 11.552 4.798 6.472-1.167 13.301-8.598 15.427-11.797 1.186-1.881 1.75-14.524 2.126-22.934.054-4.058.337-8.11.847-12.136.282-1.147.282-1.147-1.26-2.126a41.934 41.934 0 0 1-8.542-7.205c-.621-.64-2.879-2.465-4.873-4.064-1.618-1.298-3.123-2.503-3.763-3.123-8.146-7.526-16.933-16.425-18.814-18.514-1.995.79-5.964 2.69-7.225 4.854a41.849 41.849 0 0 0-3.763 19.85 256.578 256.578 0 0 0 4.328 27.732 8.632 8.632 0 0 0 8.033 6.284 31.272 31.272 0 0 0 6.454-.96.92.92 0 0 1 1.128.621l1.393 4.233a.94.94 0 0 1 0 .602c-2.032 5.456-3.951 11.985-3.744 13.34v-.076Z" data-color="1"></path>
        <path fill="#ffffff" d="m543.02 64.816-13.301 4.045s-17.723-1.75-21.731-2.239a14.395 14.395 0 0 0-7.526 1.242l-.827.564a223.182 223.182 0 0 0 3.762 23.086 9.574 9.574 0 0 0 8.937 6.98 30.355 30.355 0 0 0 6.359-.903l.339-.094 14.035-4.986 14.393-1.242.414-2.992-14.148 1.506-1.881-18.683 13.17-4.158-1.995-2.126Z" data-color="2"></path>
        <path fill="#000000" d="M512.485 99.434a10.515 10.515 0 0 1-9.84-7.657 224.267 224.267 0 0 1-3.857-23.236.943.943 0 0 1 .414-.903l.846-.564a15.168 15.168 0 0 1 8.053-1.392c3.763.47 19.623 2.031 21.523 2.22l13.17-3.989a.96.96 0 0 1 .941.245l2.164 2.107a.933.933 0 0 1 .265.898.937.937 0 0 1-.642.682l-12.417 3.932 1.675 16.933 13.17-1.392a.917.917 0 0 1 .978.64.946.946 0 0 1 .037.414l-.395 2.991a.94.94 0 0 1-.846.81l-14.28 1.24-14.356 5.043a30.34 30.34 0 0 1-6.603.978ZM500.726 68.88a221.05 221.05 0 0 0 3.763 22.389 8.63 8.63 0 0 0 8.033 6.284 29.015 29.015 0 0 0 6.134-.884h.338l13.942-4.967h.244l13.641-1.186.15-1.053-12.963 1.373a1.053 1.053 0 0 1-.696-.207 1.074 1.074 0 0 1-.339-.64l-1.881-18.682a.96.96 0 0 1 .658-.978l11.646-3.763-.639-.64-12.737 3.876a1.287 1.287 0 0 1-.377 0c-.169 0-17.779-1.75-21.749-2.239a13.394 13.394 0 0 0-6.886 1.148l-.282.169Z" data-color="1"></path>
        <path fill="#000000" d="M520.048 61.317c0 1.41-.659 2.558-1.562 2.558s-1.655-1.147-1.693-2.558c-.038-1.411.64-2.578 1.543-2.578.903 0 1.655 1.148 1.712 2.578Z" data-color="1"></path>
        <path fill="#000000" d="M504.187 61.542c0 1.223-.545 2.202-1.298 2.202-.752 0-1.392-.979-1.43-2.202-.037-1.223.546-2.22 1.298-2.22.753 0 1.393 1.073 1.43 2.22Z" data-color="1"></path>
        <path fill="#000000" d="M513.087 57.836a.903.903 0 0 1-.602-.207.942.942 0 0 1-.132-1.317c.132-.15 3.142-3.763 11.289-1.035a.94.94 0 0 1 .602 1.186.98.98 0 0 1-1.204.602c-6.736-2.22-9.069.338-9.163.451a.975.975 0 0 1-.79.32Z" data-color="1"></path>
        <path fill="#000000" d="M505.204 66.321h-.113a.92.92 0 0 1-.809-1.053c.311-1.553.26-3.156-.151-4.685-.978-.94-3.217-2.634-3.236-2.653a.96.96 0 0 1-.188-1.317.942.942 0 0 1 1.317-.188c.094 0 2.371 1.881 3.424 2.822 1.054.94.903 4.779.696 6.284a.943.943 0 0 1-.94.79Z" data-color="1"></path>
        <path fill="#000000" d="m533.218 92.51-12.662 9.22-1.374-4.233 14.036-4.986Z" data-color="1"></path>
        <path fill="#000000" d="M520.612 102.67h-.282a.966.966 0 0 1-.372-.23.966.966 0 0 1-.23-.372l-1.393-4.233a.958.958 0 0 1 .584-1.185l14.035-4.986a.94.94 0 0 1 .866 1.656l-12.644 9.219a.994.994 0 0 1-.564.131Zm-.188-4.59.677 2.126 6.378-4.629-7.055 2.503Z" data-color="1"></path>
        <path fill="#000000" d="M523.698 115.125a.96.96 0 0 1-.922-.715l-3.123-12.455a.91.91 0 0 1 .347-.975.905.905 0 0 1 .33-.153.94.94 0 0 1 1.148.677l3.123 12.455a.926.926 0 0 1-.101.707.939.939 0 0 1-.576.422l-.226.037Z" data-color="1"></path>
        <path fill="#ffffff" d="M546.199 109.444a239.874 239.874 0 0 0-16.424 37.289c-6.416 19.492-10.894 48.918-16.124 97.421-5.231 48.503-1.694 148.444-1.694 148.444a72.548 72.548 0 0 0 31.514 3.763 268.54 268.54 0 0 0 38.438-8.127s-.47-57.365-1.261-82.257c-.79-24.891-1.674-92.679-1.674-92.679s8.222-48.183 9.407-60.092c1.185-11.91 5.531-30.31 2.39-35.183-3.142-4.873-20.696-12.436-20.696-12.436l-18.081-7.037-5.795 10.894Z" data-color="2"></path>
        <path fill="#000000" d="M536.209 397.716a72.128 72.128 0 0 1-24.609-4.309.956.956 0 0 1-.583-.846c0-.997-3.462-100.6 1.712-148.633 5.644-51.965 10.122-79.321 16.143-97.627a244.658 244.658 0 0 1 16.5-37.441l5.851-10.874a.939.939 0 0 1 1.167-.433l18.08 7.037c.771.319 17.911 7.77 21.147 12.812 2.465 3.763.903 14.054-.752 24.891-.583 3.914-1.148 7.639-1.505 10.913-1.223 11.796-9.408 59.641-9.408 60.205 0 .565.885 67.882 1.675 92.491.79 24.609 1.261 81.711 1.261 82.294a.92.92 0 0 1-.678.903 267.606 267.606 0 0 1-38.607 8.165c-2.455.279-4.923.43-7.394.452Zm-23.329-5.795a72.477 72.477 0 0 0 30.479 3.518 264.718 264.718 0 0 0 37.628-7.883c0-6.698-.527-58.437-1.26-81.541-.79-24.628-1.656-92.02-1.675-92.698-.019-.677 8.241-48.447 9.407-60.205.339-3.312.922-7.056 1.524-10.988 1.449-9.539 3.086-20.357 1.016-23.593-2.446-3.763-15.465-10.009-20.281-12.079l-17.272-6.735-5.456 10.159a241.544 241.544 0 0 0-16.369 37.121c-5.964 18.156-10.479 45.418-16.067 97.232-4.91 45.85-1.957 139.113-1.674 147.692Z" data-color="1"></path>
        <path fill="#000000" d="M531.487 257.079a.958.958 0 0 1-.941-.903.945.945 0 0 1 .904-.978l19.265-1.016a.94.94 0 1 1 .094 1.881l-19.284.96-.038.056Z" data-color="1"></path>
        <path fill="#000000" d="M555.532 255.894a.962.962 0 0 1-.941-.903.953.953 0 0 1 .249-.677.945.945 0 0 1 .654-.302l15.635-.771.959-4.76-44.665.884a.938.938 0 0 1-.94-.922.922.922 0 0 1 .922-.959l45.888-.828c.14.001.278.032.405.091a.949.949 0 0 1 .518.623.953.953 0 0 1 .017.415l-1.317 6.622a.96.96 0 0 1-.884.753l-16.368.809-.132-.075Z" data-color="1"></path>
        <path fill="#000000" d="M542.023 56.406s1.731 38.607-2.446 48.071c-4.177 9.463-9.407 11.439-9.407 11.439s6.209 7.525 10.931 7.224c4.722-.301 10.367-3.236 16.387-9.2a45.157 45.157 0 0 0 8.373-10.724l10.141 5.23s-.414-5.23-3.763-24.89c-3.349-19.662-3.425-21.411-4.535-24.648-1.11-3.236-4.44-14.449-4.44-14.449" data-color="1"></path>
        <path fill="#000000" d="M540.932 124.1c-5.08 0-11.176-7.262-11.42-7.526a.876.876 0 0 1-.188-.828.922.922 0 0 1 .564-.639s4.892-2.051 8.824-10.969c3.932-8.918 2.389-47.243 2.37-47.619a.943.943 0 0 1 .941-.94.938.938 0 0 1 .941.94c0 1.58 1.693 38.927-2.54 48.484-3.142 7.131-6.867 10.179-8.711 11.289 2.107 2.295 6.359 6.115 9.407 6.002 4.666-.245 10.103-3.33 15.766-8.937a44.908 44.908 0 0 0 8.204-10.461.91.91 0 0 1 .545-.47.942.942 0 0 1 .715 0l8.579 4.421c-.338-2.822-1.26-9.539-3.593-23.104-.979-5.757-1.675-9.99-2.201-13.17a71.268 71.268 0 0 0-2.277-11.288c-1.091-3.217-4.308-14.017-4.459-14.487a.96.96 0 0 1 .64-1.167.938.938 0 0 1 1.166.64c0 .113 3.349 11.288 4.44 14.412a73.31 73.31 0 0 1 2.333 11.627c.527 3.18 1.242 7.394 2.22 13.17 3.331 19.473 3.763 24.759 3.763 24.966a.92.92 0 0 1-.414.866.946.946 0 0 1-.94 0l-9.313-4.817a50.356 50.356 0 0 1-8.091 10.123c-6.001 5.926-11.871 9.219-16.932 9.407l-.339.075Z" data-color="1"></path>
        <path fill="#000000" d="M412.223 16.294A104.424 104.424 0 0 0 414.5 2.767c0-2.992 3.763-2.446 4.948 2.69.768 2.92.864 5.975.282 8.937l-7.507 1.9Z" data-color="1"></path>
        <path fill="#000000" d="M412.223 17.235a.94.94 0 0 1-.658-.264.956.956 0 0 1-.264-.884 105.066 105.066 0 0 0 2.258-13.302A2.428 2.428 0 0 1 415.44.02c1.75-.226 3.951 1.486 4.854 5.23a21.18 21.18 0 0 1 .283 9.407 1.021 1.021 0 0 1-.678.696l-7.525 1.882h-.151Zm3.613-15.353c-.32 0-.339.659-.32.847a82.879 82.879 0 0 1-1.882 12.286l5.456-1.393a20.231 20.231 0 0 0-.376-7.94c-.847-2.746-2.22-3.8-2.878-3.8Z" data-color="1"></path>
        <path fill="#ffffff" d="m451.771 86.942-1.336.47-16.594-41.843 2.69-.94 15.24 42.313Z" data-color="2"></path>
        <path fill="#000000" d="M450.435 88.353a.956.956 0 0 1-.884-.602l-16.575-41.843a.962.962 0 0 1 .243-1.045.963.963 0 0 1 .321-.197l2.691-.94a.94.94 0 0 1 1.185.583l15.239 42.313a.865.865 0 0 1 0 .715c-.111.22-.298.394-.526.489l-1.355.47a.848.848 0 0 1-.339.057Zm-15.352-42.22 10.893 27.47-10.028-27.79-.865.32Z" data-color="1"></path>
        <path fill="#ffffff" d="m443.38 58.513-5.494 1.938-20-52.868 5.494-1.938 20 52.868Z" data-color="2"></path>
        <path fill="#000000" d="M437.829 61.392a.94.94 0 0 1-.884-.62l-20-52.869a.942.942 0 0 1 0-.715.89.89 0 0 1 .546-.49l5.494-1.88a.923.923 0 0 1 1.185.564l20 52.868a.942.942 0 0 1 0 .715.833.833 0 0 1-.546.49l-5.494 1.88a.846.846 0 0 1-.301.057ZM419.015 8.148l19.322 51.1 3.763-1.3L422.778 6.85l-3.763 1.299Z" data-color="1"></path>
        <path fill="#ffffff" d="m445.581 57.742-9.915 3.48-15.898-42.087 9.915-3.48 15.898 42.087Z" data-color="2"></path>
        <path fill="#000000" d="M435.666 62.163a.98.98 0 0 1-.884-.62l-15.898-42.07a.893.893 0 0 1 .223-1.033.933.933 0 0 1 .322-.19l9.915-3.48a.924.924 0 0 1 1.186.565l15.916 42.068a.97.97 0 0 1 0 .734.927.927 0 0 1-.545.49l-9.953 3.48a.962.962 0 0 1-.282.056ZM420.897 19.7l15.258 40.319 8.147-2.841-15.259-40.32-8.146 2.841Z" data-color="1"></path>
        <path fill="#ffffff" d="m445.581 57.742-9.915 3.48-3.443-9.124 9.915-3.462 3.443 9.106Z" data-color="2"></path>
        <path fill="#000000" d="M435.666 62.163a.983.983 0 0 1-.884-.62l-3.443-9.107a.99.99 0 0 1 0-.733.874.874 0 0 1 .545-.49l9.915-3.48a.961.961 0 0 1 1.186.564l3.443 9.106a.98.98 0 0 1 0 .734.947.947 0 0 1-.546.49l-9.934 3.48a.959.959 0 0 1-.282.056Zm-2.22-9.5 2.784 7.356 8.147-2.841-2.784-7.357-8.147 2.841Z" data-color="1"></path>
        <path fill="#ffffff" d="m425.732 5.72-9.595 3.368-.602-1.58 9.595-3.368.602 1.58Z" data-color="2"></path>
        <path fill="#000000" d="M416.137 10.029a.901.901 0 0 1-.866-.602l-.602-1.6a.864.864 0 0 1 0-.714.89.89 0 0 1 .546-.49l9.595-3.367a.942.942 0 0 1 1.185.546l.602 1.599a.99.99 0 0 1 0 .734 1.07 1.07 0 0 1-.545.489l-9.596 3.349a.953.953 0 0 1-.319.056Z" data-color="1"></path>
        <path fill="#000000" d="M420.708 10.612s-13.339 6.491-12.172 9.2c1.166 2.71 5.983 25.983 5.983 25.983a106.73 106.73 0 0 1-3.406 12.173c-1.26 2.709 2.39 7.3 7.526 8.127 5.136.828 12.323-3.762 12.323-3.762s.17-3.236.565-8.11c.395-4.872-4.158-11.645-4.158-11.645l5.776-5.137h6.773s1.543-2.446 0-2.972c-1.543-.527-3.01-1.092-3.01-1.092s-2.277-11.909-2.841-12.718c-.565-.809-.414-4.327-3.763-5.945-3.349-1.618-9.596-4.102-9.596-4.102Z" data-color="1"></path>
        <path fill="#000000" d="M419.956 67.13c-.479 0-.957-.037-1.43-.113a11.02 11.02 0 0 1-7.902-5.305 4.573 4.573 0 0 1-.357-4.14 101.05 101.05 0 0 0 3.292-11.796c-1.373-6.585-4.967-23.461-5.87-25.587-1.336-3.086 7.319-7.846 12.606-10.424a.96.96 0 0 1 .752 0c.245.095 6.378 2.465 9.671 4.102a7.406 7.406 0 0 1 3.763 5.456c.059.274.134.544.225.81a90.21 90.21 0 0 1 2.898 12.548c.527.207 1.448.546 2.483.885a1.875 1.875 0 0 1 1.261 1.204 4.109 4.109 0 0 1-.678 3.18.938.938 0 0 1-.79.432h-6.415l-4.911 4.365c1.167 1.881 4.196 7.3 3.876 11.552a299.99 299.99 0 0 0-.565 8.09.906.906 0 0 1-.432.734c-.188.15-6.266 4.007-11.477 4.007Zm.79-55.502c-6.19 3.067-11.439 6.68-11.288 7.827 1.185 2.747 5.813 25.192 6.02 26.152a.94.94 0 0 1 0 .395c-.89 4.19-2.046 8.318-3.462 12.36a2.813 2.813 0 0 0 .32 2.465 9.201 9.201 0 0 0 6.548 4.328c4.063.64 9.726-2.484 11.288-3.406 0-1.09.226-3.875.527-7.638.357-4.497-3.97-10.988-4.008-11.044a.94.94 0 0 1 .151-1.223l5.795-5.155a.94.94 0 0 1 .621-.226h6.208a1.88 1.88 0 0 0 .264-1.11c-1.75-.583-3.142-1.129-3.142-1.129a.969.969 0 0 1-.583-.715c-1.054-5.531-2.371-11.684-2.729-12.399a4.133 4.133 0 0 1-.47-1.373 5.648 5.648 0 0 0-2.841-4.233c-2.841-1.355-7.808-3.311-9.219-3.876Z" data-color="1"></path>
        <path fill="#000000" d="M434.067 21.562a1.106 1.106 0 0 1-.414-.094c-3.631-1.75-9.953-4.515-11.289-4.515-1.336 0-4.214 2.54-5.945 4.327a.951.951 0 0 1-1.027.22.947.947 0 0 1-.328-1.537c.79-.81 4.854-4.892 7.3-4.892 2.446 0 10.536 3.914 12.173 4.704a.939.939 0 0 1 .452 1.26.98.98 0 0 1-.922.527Z" data-color="1"></path>
        <path fill="#000000" d="M418.262 28.41a.96.96 0 0 1-.79-.432.938.938 0 0 1 .264-1.298l6.095-4.064a.924.924 0 0 1 .772-.113l10.385 2.973a.926.926 0 0 1 .678.799.93.93 0 0 1-.038.367.899.899 0 0 1-.784.677.906.906 0 0 1-.364-.037l-9.971-2.86-5.645 3.763a.864.864 0 0 1-.602.226Z" data-color="1"></path>
        <path fill="#000000" d="M423.38 36.18a.979.979 0 0 1-.809-.45.937.937 0 0 1 .046-1.05.94.94 0 0 1 .274-.249l5.306-3.255c.193-.11.42-.15.639-.113l8.166 1.355a.951.951 0 0 1 .79 1.091.967.967 0 0 1-.382.621.951.951 0 0 1-.709.17l-7.827-1.28-5.005 3.048a.936.936 0 0 1-.489.113Z" data-color="1"></path>
        <path fill="#000000" d="M426.334 52.417a.96.96 0 0 1-.376-1.88 3.765 3.765 0 0 0 2.502-2.447 6.895 6.895 0 0 0-1.768-5.004.939.939 0 0 1 .103-1.327.942.942 0 0 1 1.327.104c.113.131 2.935 3.462 2.182 6.66a5.642 5.642 0 0 1-3.612 3.763.811.811 0 0 1-.358.131Z" data-color="1"></path>
        <path fill="#ffffff" d="M457.81 96.405h-8.937l-.206-6.51h8.936l.207 6.51Z" data-color="2"></path>
        <path fill="#000000" d="M457.81 97.346h-8.937a.96.96 0 0 1-.94-.922l-.207-6.49a.958.958 0 0 1 .263-.678.902.902 0 0 1 .677-.301h8.937a.96.96 0 0 1 .941.922l.188 6.49a.818.818 0 0 1-.263.678.907.907 0 0 1-.659.301Zm-8.033-1.881h7.055l-.151-4.629h-7.036l.132 4.629Z" data-color="1"></path>
        <path fill="#ffffff" d="m492.391 120.488 11.382 17.309-17.026 15.973-8.279-22.182s12.907-9.482 13.923-11.1Z" data-color="2"></path>
        <path fill="#000000" d="M486.746 154.711h-.207a.969.969 0 0 1-.677-.584l-8.335-22.238a.938.938 0 0 1 .32-1.091 142.263 142.263 0 0 0 13.753-10.837.908.908 0 0 1 .791-.433.942.942 0 0 1 .79.414l11.383 17.328a.939.939 0 0 1-.151 1.204l-17.083 15.992a.968.968 0 0 1-.584.245Zm-7.205-22.822 7.525 20.188 15.466-14.45-10.292-15.672c-2.69 2.559-10.065 8.053-12.699 9.934Z" data-color="1"></path>
        <path fill="#000000" d="M492.391 120.488a171.187 171.187 0 0 0-9.953-15.428c-3.386-4.064-16.331-11.289-18.532-12.719-2.201-1.43-11.081.546-16.462 1.618-5.381 1.073-10.856 7.526-10.856 7.526l-2.107 2.183s-2.71-.546-1.882 1.354c.828 1.9 3.048 2.427 6.077 3.763 3.029 1.336 9.595 4.064 9.595 4.064s-14.919-1.072-15.709-.809c-.791.263-.753 1.881 2.539 3.763 3.293 1.881 20.696 4.064 20.696 4.064s13.17 5.964 16.707 6.773l3.556.809 2.296 4.064s10.479-3.726 14.035-11.025Z" data-color="1"></path>
        <path fill="#000000" d="M478.412 132.529a.964.964 0 0 1-.828-.489l-2.089-3.763-3.142-.734a173.936 173.936 0 0 1-16.763-6.754c-2.371-.301-17.61-2.277-20.903-4.158-3.292-1.882-3.537-3.387-3.462-4.139a1.564 1.564 0 0 1 1.073-1.355 73.701 73.701 0 0 1 10.367.357c-1.6-.677-3.218-1.354-4.328-1.881l-1.655-.715c-2.258-.941-4.046-1.674-4.892-3.537a1.875 1.875 0 0 1 0-2.051 2.595 2.595 0 0 1 2.276-.696l1.769-1.881c.188-.226 5.644-6.717 11.288-7.846l.866-.17c7.526-1.542 14.035-2.69 16.274-1.335l1.43.865c4.29 2.522 14.318 8.429 17.328 12.06a168.724 168.724 0 0 1 10.066 15.56.92.92 0 0 1 0 .884c-3.669 7.526-14.073 11.402-14.506 11.571a1.02 1.02 0 0 1-.169.207Zm-45.155-19.548a5.97 5.97 0 0 0 2.427 2.088c2.578 1.468 15.56 3.349 20.357 3.932h.264c.132 0 13.17 5.927 16.556 6.717l3.537.809a.926.926 0 0 1 .603.452l1.881 3.349c2.314-.979 9.539-4.365 12.493-9.897a157.525 157.525 0 0 0-9.614-14.844c-2.804-3.387-13.001-9.407-16.839-11.646l-1.468-.885c-1.768-1.072-10.31.659-14.901 1.58l-.865.17c-4.986 1.016-10.273 7.206-10.329 7.262l-2.145 2.221a.93.93 0 0 1-.847.263 2.668 2.668 0 0 0-.846 0c.564 1.185 1.881 1.75 3.932 2.596.527.226 1.091.452 1.674.734 2.973 1.317 9.52 4.008 9.577 4.045a.945.945 0 0 1 .209 1.632.92.92 0 0 1-.623.174c-5.08-.244-13.095-.771-15.108-.658l.075-.094Z" data-color="1"></path>
        <path fill="#000000" d="M455.176 108.428a.916.916 0 0 1-.376 0c-4.308-1.882-9.162-3.876-9.84-3.989l-10.442.282a.943.943 0 0 1-.665-.275.944.944 0 0 1 0-1.331.943.943 0 0 1 .665-.275c.395 0 9.765-.264 10.574-.264a71.322 71.322 0 0 1 10.517 4.139.941.941 0 0 1-.376 1.788l-.057-.075Z" data-color="1"></path>
        <path fill="#000000" d="M436.588 102.482a.921.921 0 0 1-.922-.79.907.907 0 0 1 .423-.953.9.9 0 0 1 .348-.119c3.048-.527 13.057-2.183 13.885-2.183.828 0 8.899.49 9.821.546a.945.945 0 0 1 .884.997.944.944 0 0 1-.997.884c-2.483-.132-9.068-.527-9.708-.527-.64 0-8.692 1.336-13.584 2.145h-.15Z" data-color="1"></path>
        <path fill="#ffffff" d="M586.97 115.878c2.728.546 7.959 3.518 8.128 8.673.169 5.156-5.381 35.183-9.238 41.392-3.857 6.209-47.318 52.247-50.798 52.68-3.481.433-16.275-9.407-26.867-19.473-10.592-10.066-32.944-39.792-32.944-39.792l26.34-24.628 26.171 31.401a7.031 7.031 0 0 1 2.032-4.327 49.307 49.307 0 0 1 4.214-3.255s18.306-28.955 25.193-33.565a38.396 38.396 0 0 1 12.266-5.644" data-color="2"></path>
        <path fill="#000000" d="M534.798 219.676c-5.005 0-19.379-12.304-27.281-19.755-10.536-9.952-32.812-39.604-33.038-39.905a.92.92 0 0 1 .113-1.241l26.34-24.628a.839.839 0 0 1 .317-.215.844.844 0 0 1 .379-.049.944.944 0 0 1 .659.339l24.948 29.934a7.112 7.112 0 0 1 1.881-2.973 51.216 51.216 0 0 1 4.139-3.199c1.656-2.596 18.589-29.162 25.362-33.677a39.374 39.374 0 0 1 12.605-5.833.964.964 0 0 1 1.11.734.925.925 0 0 1 .002.367.928.928 0 0 1-.397.601.926.926 0 0 1-.338.142 38.385 38.385 0 0 0-11.947 5.645c-6.642 4.44-24.722 32.981-24.892 33.282-.08.102-.175.191-.282.263 0 0-2.352 1.618-4.12 3.18a6.094 6.094 0 0 0-1.712 3.763.924.924 0 0 1-.659.828.977.977 0 0 1-1.016-.282l-25.55-30.799-24.929 23.367c3.387 4.478 22.785 29.971 32.323 38.983 11.684 11.025 23.368 19.623 26.077 19.247 3.462-1.11 45.7-45.154 50.178-52.341 3.763-5.964 9.256-35.578 9.087-40.884-.151-4.477-4.873-7.262-7.375-7.77a.917.917 0 0 1-.735-.728.958.958 0 0 1 1.111-1.116c3.481.696 8.711 4.215 8.88 9.558.17 5.343-5.286 35.333-9.407 41.937-3.123 5.042-47.205 52.548-51.476 53.207l-.357.018Z" data-color="1"></path>
        <path fill="#ffffff" d="M480.557 165.322s17.177-13.622 26.848-23.273Z" data-color="2"></path>
        <path fill="#000000" d="M480.557 166.263a.946.946 0 0 1-.752-.358.939.939 0 0 1 .15-1.317c.188-.131 17.253-13.715 26.773-23.198a.938.938 0 0 1 1.606.668.96.96 0 0 1-.27.668c-9.595 9.558-26.754 23.198-26.923 23.33a.926.926 0 0 1-.584.207Z" data-color="1"></path>
        <path fill="#ffffff" d="M549.869 180.355a20.593 20.593 0 0 1-3.669 6.095Z" data-color="2"></path>
        <path fill="#000000" d="M546.2 187.466a.856.856 0 0 1-.621-.244.925.925 0 0 1-.205-1.016.925.925 0 0 1 .205-.301 20.168 20.168 0 0 0 3.499-5.833.945.945 0 0 1 1.545-.539.936.936 0 0 1 .242 1.085 21.282 21.282 0 0 1-3.875 6.529.96.96 0 0 1-.79.319Z" data-color="1"></path>
        <path fill="#ffffff" d="M530.452 168.106a131.856 131.856 0 0 1 15.974 6.623Z" data-color="2"></path>
        <path fill="#000000" d="M546.407 175.67a1.002 1.002 0 0 1-.452-.113 127.972 127.972 0 0 0-15.804-6.547.947.947 0 0 1-.583-1.205.913.913 0 0 1 .469-.541.912.912 0 0 1 .354-.093.91.91 0 0 1 .362.051 125.65 125.65 0 0 1 16.124 6.698.932.932 0 0 1 .451.564.927.927 0 0 1-.094.715.935.935 0 0 1-.827.471Z" data-color="1"></path>
        <path fill="#ffffff" d="M530.923 165.943s13.17-.809 17.685 3.255Z" data-color="2"></path>
        <path fill="#000000" d="M548.608 170.138a.856.856 0 0 1-.621-.244c-3.424-3.104-13.433-3.217-16.933-3.01a.932.932 0 0 1-.687-.229.918.918 0 0 1-.31-.656.942.942 0 0 1 .884-.997c.565 0 13.678-.771 18.382 3.5a.937.937 0 0 1 .243 1.038.941.941 0 0 1-.883.598h-.075Z" data-color="1"></path>
        <path fill="#ffffff" d="M125.162 227.523s7.851 38.397 12.622 56.815a174.1 174.1 0 0 1 5.455 30.679l-31.705-1.368s-2.376-93.14-2.034-101.237c.342-8.097.342-46.019.342-46.019s11.576 46.228 15.32 61.13Z" data-color="2"></path>
        <path fill="#000000" d="m143.239 315.968-31.706-1.369a.953.953 0 0 1-.912-.931c0-3.802-2.376-93.14-2.034-101.294.342-8.154.342-45.619.342-45.98a.951.951 0 0 1 .818-.951.952.952 0 0 1 1.045.722s11.576 46.228 15.34 61.111c0 .38 7.907 38.587 12.602 56.758a175.403 175.403 0 0 1 5.493 30.869c.011.267-.085.527-.266.723a1.047 1.047 0 0 1-.722.342Zm-30.793-3.232 29.747 1.274a186.085 186.085 0 0 0-5.341-29.444c-4.695-18.038-12.412-55.75-12.621-56.834a33940.768 33940.768 0 0 1-13.477-53.659c0 11.519-.095 32.561-.323 38.377-.304 7.622 1.787 90.725 2.015 100.286Z" data-color="1"></path>
        <path fill="#000000" d="M114.955 228.094a363.097 363.097 0 0 1 4.429 58.278c0 33.758-8.535 103.29-8.535 103.29s-2.718 28.284-3.06 36.115c-.342 7.831-4.847 67.859-4.847 67.859l3.06 7.831.685 5.797s10.91 7.148 17.392 8.858c6.482 1.711 11.918 1.027 11.918 2.737a44.972 44.972 0 0 1-1.692 7.832c-.342 1.026-11.595 3.06-21.137 3.801-9.542.742-26.611-3.06-26.611-3.06s-10.91 2.034-12.26-.342c-1.35-2.376-1.027-9.884-1.027-10.911 0-1.026-.684-17.107-.684-19.426 0-2.319 1.71-11.595 1.71-11.595l-1.71-64.076-1.958-55.96L60.06 231.154l54.895-3.06Z" data-color="1"></path>
        <path fill="#000000" d="M110.697 531.481a140.145 140.145 0 0 1-24.064-3.194c-3.574.666-11.576 1.787-13.078-.836-1.197-2.11-1.235-7.204-1.16-10.835v-.551c0-.399-.113-3.136-.246-6.444-.19-5.132-.438-11.518-.438-12.982 0-2.338 1.502-10.607 1.692-11.671l-1.692-63.981-2.052-55.884-10.569-133.93a1.01 1.01 0 0 1 .247-.703.97.97 0 0 1 .666-.324l54.876-3.06a.972.972 0 0 1 .988.78 368.398 368.398 0 0 1 4.448 58.449c0 33.416-8.459 102.644-8.535 103.404 0 .266-2.718 28.341-3.06 36.115-.342 7.774-4.467 63.696-4.752 67.65l2.984 7.603v.228l.628 5.36c1.9 1.236 11.138 7.014 16.727 8.497 2.413.587 4.865 1 7.337 1.235 3.193.342 5.303.59 5.303 2.414a45.053 45.053 0 0 1-1.749 8.136c-.779 2.357-18.704 4.162-21.973 4.391-.779.095-1.616.133-2.528.133Zm-24.045-5.094h.209c.171 0 17.012 3.801 26.307 3.041 9.295-.761 18.875-2.471 20.377-3.308a45.044 45.044 0 0 0 1.577-7.318 25.846 25.846 0 0 0-3.63-.532 52.32 52.32 0 0 1-7.603-1.292c-6.558-1.711-17.222-8.687-17.659-8.972a.981.981 0 0 1-.294-.294.983.983 0 0 1-.143-.391l-.665-5.702-3.004-7.546a1.089 1.089 0 0 1 0-.418c0-.609 4.429-60.066 4.771-67.802.343-7.736 3.042-35.906 3.08-36.115 0-.722 8.515-69.893 8.515-103.195a374.856 374.856 0 0 0-4.277-57.29l-53.089 2.794 10.492 133.056 2.053 55.941 1.711 64.095v.19c0 .057-1.692 9.143-1.692 11.405 0 1.426.248 7.793.438 12.906.133 3.346.247 6.121.247 6.52v.589c-.114 5.285.19 8.592.912 9.847.722 1.254 5.817.912 11.272-.114l.095-.095Z" data-color="1"></path>
        <path fill="#000000" d="m16.855 235.564 6.444 151.38s-.647 41.817-.647 45.733c0 3.916-3.212 34.785-2.585 40.639.627 5.855-1.273 32.162-1.273 32.162S17.5 533.172 17.5 538.324a10.151 10.151 0 0 0 6.444 9.656c3.212 1.292 14.807 1.292 18.685 0 3.877-1.293 9.01-12.888 8.363-21.898a130.163 130.163 0 0 0-2.566-17.392 70.09 70.09 0 0 0 2.566-14.826 174.57 174.57 0 0 1 1.293-20.605c.646-3.212 16.1-113.383 16.1-113.383l7.09-41.817 4.504-88.198-63.125 5.703Z" data-color="1"></path>
        <path fill="#000000" d="M33.069 549.976a32.333 32.333 0 0 1-9.505-1.046 11.138 11.138 0 0 1-7.032-10.549c0-5.113 1.235-31.763 1.292-32.903 0-.285 1.9-26.421 1.293-32.048-.438-3.801.74-17.829 1.691-29.063.476-5.531.875-10.321.875-11.633 0-3.801.646-45.334.646-45.752l-6.444-151.323a.952.952 0 0 1 .856-.989l63.144-5.702a.91.91 0 0 1 .742.266.952.952 0 0 1 .285.722l-4.505 88.255-7.09 41.988c-.646 4.467-15.473 110.247-16.119 113.402a177.757 177.757 0 0 0-1.273 20.415 67.869 67.869 0 0 1-2.548 14.845 131.686 131.686 0 0 1 2.547 17.298c.666 9.37-4.713 21.441-9.028 22.809a37.149 37.149 0 0 1-9.828 1.008Zm-15.207-313.5 6.406 150.487c0 .456-.646 41.95-.646 45.771 0 1.388-.38 5.988-.875 11.804-.893 10.55-2.11 24.996-1.71 28.664.646 5.817-1.198 31.306-1.293 32.314 0 .247-1.274 27.713-1.274 32.789a9.273 9.273 0 0 0 5.836 8.781c3.06 1.217 14.35 1.198 18.038 0 3.232-1.083 8.364-12.051 7.718-20.908a129.26 129.26 0 0 0-2.547-17.26 1.006 1.006 0 0 1 0-.475 68.13 68.13 0 0 0 2.547-14.56 176.13 176.13 0 0 1 1.292-20.719c.627-3.155 15.948-112.147 16.1-113.326l7.09-41.817 4.429-87.038-61.11 5.493Z" data-color="1"></path>
        <path fill="#000000" d="M58.368 71.638s15.035-.684 21.84-.855c6.805-.17 26.611 16.195 26.611 16.195l6.824 85.536s2.034 53.508 1.369 55.561c-.665 2.052-31.363 5.455-46.019 5.113 0 0-6.14.684-8.876-2.053-2.737-2.737-1.75-159.496-1.75-159.496Z" data-color="1"></path>
        <path fill="#000000" d="M67.226 234.233a11.628 11.628 0 0 1-7.831-2.471c-2.795-2.794-2.224-123.343-1.901-160.218a.931.931 0 0 1 .893-.932c.152 0 15.207-.684 21.86-.855 7.147-.152 26.383 15.72 27.2 16.404.197.168.32.407.342.665l6.824 85.536c.342 9.01 2.015 53.831 1.312 55.941-1.084 3.25-35.736 6.025-46.95 5.702-.114.152-.78.228-1.749.228ZM59.224 72.551c-.38 61.643-.304 153.965 1.558 158.09 1.901 1.901 6.387 1.787 7.965 1.615 15.206.343 42.521-2.965 45.239-4.619.38-3.06-.647-34.366-1.426-55.123l-6.786-85.118c-5.702-4.638-20.262-15.72-25.528-15.72-5.816.21-17.582.723-21.022.875Z" data-color="1"></path>
        <path fill="#ffffff" d="M71.56 81.979s3.498 25.927 5.703 33.15c2.205 7.223 2.338 93.139 2.338 93.139l3.022 84.51-1.483 34.024a139.851 139.851 0 0 1-42.958-.475 293.427 293.427 0 0 1-37.123-8.63S-.1 287.589 2.96 271.014s8.63-79.606 8.63-79.606l-5.836-54.857s-1.9-46.456-1.9-50.885c0-4.428 14.237-17.278 18.665-18.21 4.43-.93 35.013-2.11 35.013-2.11L71.56 81.98Z" data-color="2"></path>
        <path fill="#000000" d="M61.124 329.216c-7.713.026-15.414-.61-23.019-1.901A292.168 292.168 0 0 1 .87 318.648a.938.938 0 0 1-.665-.856c0-.304-1.122-30.412 1.9-46.892 3.023-16.48 8.573-78.884 8.63-79.511l-5.95-54.667c0-1.901-1.9-46.57-1.9-50.98 0-5.094 14.845-18.171 19.426-19.14 4.58-.97 33.967-2.11 35.203-2.11a.931.931 0 0 1 .779.342l13.99 16.575c.117.142.195.312.228.494 0 .247 3.516 25.908 5.57 32.998 2.052 7.09 2.356 89.889 2.375 93.405l3.023 84.472-1.388 34.214a.97.97 0 0 1-.798.894 133.009 133.009 0 0 1-20.168 1.33ZM2.085 317.051a307.067 307.067 0 0 0 36.23 8.402 141.555 141.555 0 0 0 41.817.589l1.369-33.302-3.022-84.434c0-29.69-.666-87.285-2.3-92.911-1.94-6.9-5.114-29.995-5.55-32.998L57.132 66.392c-3.802.152-30.413 1.217-34.386 2.072-3.973.856-17.925 13.42-17.925 17.279 0 4.371 1.901 50.39 1.901 50.846l5.836 54.8c0 .817-5.703 63.43-8.649 79.834-2.775 14.94-2.072 41.304-1.92 45.828h.095Z" data-color="1"></path>
        <path fill="#000000" d="m30.711 247.881-9.504-.589a.926.926 0 0 1-.65-.32.923.923 0 0 1-.224-.688.97.97 0 0 1 1.007-.893l9.41.589a.948.948 0 0 1 .95.951.952.952 0 0 1-.95.95h-.039Z" data-color="1"></path>
        <path fill="#000000" d="m68.272 250.181-33.17-2.034a.949.949 0 0 1-.893-1.007.914.914 0 0 1 .634-.855.91.91 0 0 1 .374-.039l32.161 1.901v-7.489l-50.542-4.182a.953.953 0 1 1 .152-1.901l51.417 4.239a.952.952 0 0 1 .874.931v9.39a.91.91 0 0 1-.304.685.912.912 0 0 1-.703.361Z" data-color="1"></path>
        <path fill="#000000" d="M26.188 190.534a1.032 1.032 0 0 1-.57-.19.953.953 0 0 1-.19-1.331c6.975-9.504 19.825-27.619 27.333-42.863a.951.951 0 0 1 1.71.836c-7.603 15.378-20.49 33.645-27.523 43.149a.941.941 0 0 1-.76.399Z" data-color="1"></path>
        <path fill="#000000" d="M19.402 199.448a.947.947 0 0 1-.741-1.539s1.235-1.578 3.25-4.239a.95.95 0 1 1 1.52 1.14 402.226 402.226 0 0 1-3.288 4.277.975.975 0 0 1-.741.361Z" data-color="1"></path>
        <path fill="#000000" d="M24.572 173.008a.95.95 0 0 1-.59-1.691c6.957-5.38 21.365-21.042 21.517-21.194a.948.948 0 0 1 1.25.031.95.95 0 0 1 .138 1.242c-.59.666-14.655 15.948-21.745 21.422a.926.926 0 0 1-.57.19Z" data-color="1"></path>
        <path fill="#000000" d="M65.725 68.825c-1.502 0-2.985-1.197-4.486-3.611a17.468 17.468 0 0 1-1.901-12.64.97.97 0 0 1 .893-.723c.323 0 7.774-.209 11.918 1.9a3.384 3.384 0 0 1 1.73 2.225c.627 2.661-1.673 6.291-3.992 9.504l-.437.608c-.722 1.046-1.9 2.737-3.725 2.737Zm-4.81-15.073c-.607 3.6.066 7.299 1.901 10.454 1.464 2.357 2.452 2.718 2.909 2.718.817 0 1.54-1.102 1.9-1.767l.513-.723c1.141-1.577 4.182-5.702 3.67-7.964a1.407 1.407 0 0 0-.761-.95 26.024 26.024 0 0 0-10.131-1.768Z" data-color="1"></path>
        <path fill="#ffffff" d="m192.223 87.092 2.794 7.565-.266 2.243-3.365.856-2.166-5.95-2.89-2.47 5.893-2.244Z" data-color="2"></path>
        <path fill="#000000" d="M191.387 98.706a.93.93 0 0 1-.894-.608l-2.091-5.703-2.699-2.319a.973.973 0 0 1-.104-1.331.948.948 0 0 1 .389-.284l5.893-2.243c.238-.094.503-.094.741 0 .223.112.398.301.494.532l2.794 7.603a.853.853 0 0 1 0 .437l-.285 2.243a.93.93 0 0 1-.703.818l-3.364.836-.171.019Zm-3.232-9.029 1.673 1.445a.82.82 0 0 1 .285.38l1.901 5.132 1.901-.475.171-1.369-2.376-6.462-3.555 1.35Z" data-color="1"></path>
        <path fill="#ffffff" d="M158.807 112.316s-1.616 9.504-2.414 17.753c-.799 8.25-1.008 10.284-1.008 10.284l19.56-22.183-16.138-5.854Z" data-color="2"></path>
        <path fill="#000000" d="M155.385 141.303a1.21 1.21 0 0 1-.38 0 .967.967 0 0 1-.57-.97s.209-2.033 1.007-10.283c.799-8.249 2.414-17.734 2.433-17.829a.904.904 0 0 1 .456-.647.923.923 0 0 1 .799 0l16.138 5.855a.947.947 0 0 1 .608.646.988.988 0 0 1-.209.874l-19.502 22.031a.922.922 0 0 1-.78.323Zm4.182-27.714c-.456 2.756-1.597 10.074-2.224 16.556-.342 3.422-.57 5.703-.722 7.375l16.689-19.008-13.743-4.923Z" data-color="1"></path>
        <path fill="#ffffff" d="m158.807 112.316 2.566-11.766 1.673-10.664 12.07-4.77 6.443 6.747-9.446 26.326-13.306-5.873Z" data-color="2"></path>
        <path fill="#000000" d="M172.112 119.14a.87.87 0 0 1-.38 0l-13.306-5.874a.966.966 0 0 1-.551-1.083l2.566-11.766 1.673-10.588a.955.955 0 0 1 .589-.741l12.07-4.771a.911.911 0 0 1 1.027.228l6.443 6.729a.894.894 0 0 1 .209.97l-9.504 26.344a.962.962 0 0 1-.513.552.922.922 0 0 1-.323 0Zm-12.146-7.375 11.652 5.151 8.915-24.825-5.608-5.854-10.967 4.334-1.597 10.131-2.395 11.063Z" data-color="1"></path>
        <path fill="#ffffff" d="M99.768 80.914s2.319 43.111 2.794 55.01c.475 11.899 15.378 61.757 16.784 67.117 1.407 5.36 5.817 24.482 5.817 24.482s-2.794-62.726-3.022-63.41c-.229-.685 1.634-17.716 1.634-17.716s12.812 3.802 19.807 4.201a28.245 28.245 0 0 0 13.058-2.566l-.475-15.207 2.642-20.566s-14.75 1.216-15.701.988a42.532 42.532 0 0 1-5.36-3.497 40.516 40.516 0 0 0-6.748-15.378c-5.835-8.63-12.127-18.19-16.081-20.053a166.225 166.225 0 0 0-6.766-3.023l-7.927 7.927-.456 1.691Z" data-color="2"></path>
        <path fill="#000000" d="M125.162 228.474a.935.935 0 0 1-.912-.742c0-.19-4.448-19.16-5.836-24.444-.247-.95-.912-3.307-1.9-6.596-4.353-15.206-14.56-50.846-14.941-60.825-.456-11.728-2.775-54.553-2.794-54.99a.57.57 0 0 1 0-.305l.456-1.635a.951.951 0 0 1 .248-.418l7.926-7.907a.91.91 0 0 1 1.026-.21s2.87 1.198 6.805 3.042c3.935 1.844 9.846 10.569 15.53 19.008l.931 1.407a42.224 42.224 0 0 1 6.843 15.377 38.892 38.892 0 0 0 4.733 3.118c.874.114 9.903-.571 15.377-1.027a.858.858 0 0 1 .761.285.935.935 0 0 1 .266.78l-2.566 20.528.475 15.017a.967.967 0 0 1-.532.874 28.987 28.987 0 0 1-13.534 2.661 119.227 119.227 0 0 1-19.008-3.915c-.684 6.253-1.597 15.396-1.521 16.327.191.533 1.768 34.861 3.042 63.506a.936.936 0 0 1-.818.989l-.057.095ZM100.718 81.009c.152 2.89 2.338 43.472 2.794 54.877.38 9.656 10.531 45.125 14.864 60.274.951 3.326 1.635 5.702 1.901 6.634.704 2.718 2.205 8.991 3.498 14.503-.913-20.225-2.357-51.702-2.547-52.994 0-.133-.266-.78 1.615-18.001a.973.973 0 0 1 .419-.684.908.908 0 0 1 .798-.133 128.25 128.25 0 0 0 19.597 4.162 27.517 27.517 0 0 0 12.032-2.224l-.475-14.503 2.509-19.559c-5.702.456-13.952 1.103-14.845.874a34.19 34.19 0 0 1-5.703-3.668.967.967 0 0 1-.38-.627 40.186 40.186 0 0 0-6.615-14.979l-.931-1.406c-5.284-7.813-11.253-16.67-14.769-18.305a203.937 203.937 0 0 0-6.121-2.775l-7.318 7.223-.323 1.311Z" data-color="1"></path>
        <path fill="#ffffff" d="m99.939 88.156 10.872 5.475s-1.197-15.89-2.699-18.59c-1.501-2.7-10.777-10.778-10.777-10.778l2.604 23.893Z" data-color="2"></path>
        <path fill="#000000" d="M110.811 94.581a.818.818 0 0 1-.418-.114l-10.892-5.455a.989.989 0 0 1-.513-.76l-2.604-23.894a.912.912 0 0 1 .513-.931.95.95 0 0 1 1.065.114c.95.836 9.504 8.288 10.986 11.044 1.483 2.756 2.681 17.316 2.814 19.008a.952.952 0 0 1-.419.855.892.892 0 0 1-.532.133Zm-9.979-7.052 8.896 4.486c-.514-6.273-1.502-14.826-2.433-16.499a65.957 65.957 0 0 0-8.744-8.915l2.281 20.928Z" data-color="1"></path>
        <path fill="#ffffff" d="M121.418 119.615a24.803 24.803 0 0 0-1.616-5.703Z" data-color="2"></path>
        <path fill="#000000" d="M121.418 120.603a.93.93 0 0 1-.932-.779 23.352 23.352 0 0 0-1.539-5.398.955.955 0 0 1-.038-.733.945.945 0 0 1 .494-.541.937.937 0 0 1 .719-.044.923.923 0 0 1 .536.481 25.18 25.18 0 0 1 1.691 5.893.946.946 0 0 1-.76 1.102l-.171.019Z" data-color="1"></path>
        <path fill="#ffffff" d="M123.851 146.397s-.304-11.006-1.425-20.51Z" data-color="2"></path>
        <path fill="#000000" d="M123.851 147.348a.932.932 0 0 1-.95-.913c0-.114-.323-11.082-1.426-20.434a.952.952 0 0 1 .836-1.045.903.903 0 0 1 .938.465c.06.109.096.229.108.352 1.121 9.504 1.445 20.491 1.445 20.605a.966.966 0 0 1-.265.678.951.951 0 0 1-.667.292h-.019Z" data-color="1"></path>
        <path fill="#000000" d="M125.409 119.843a.926.926 0 0 1-.399 0 .97.97 0 0 1-.475-1.255c3.973-8.686 10.93-8.04 11.215-8.021a.953.953 0 0 1 .821.674c.036.12.047.246.034.371a.958.958 0 0 1-.344.646.949.949 0 0 1-.701.21c-.247 0-5.912-.476-9.295 6.9a.919.919 0 0 1-.856.475Z" data-color="1"></path>
        <path fill="#000000" d="M134.267 124.975a.877.877 0 0 1-.323 0 .921.921 0 0 1-.321-.188.912.912 0 0 1-.31-.661.92.92 0 0 1 .061-.367c2.167-6.026 8.896-10.968 9.181-11.158a.926.926 0 0 1 1.06-.049.97.97 0 0 1 .061 1.589s-6.557 4.79-8.515 10.264a.995.995 0 0 1-.894.57Z" data-color="1"></path>
        <path fill="#ffffff" d="M71.56 48.145s-.931 11.404-1.9 13.058c-.97 1.654-3.802 3.516-2.567 7.47C68.33 72.627 73.385 84.09 82.3 86.427a24.501 24.501 0 0 0 17.108-2.566l3.022-6.786s-11.67-3.023-17.506-9.504A153.632 153.632 0 0 1 71.56 48.145Z" data-color="2"></path>
        <path fill="#000000" d="M87.317 88.004a20.718 20.718 0 0 1-5.284-.703c-9.276-2.433-14.58-14.104-15.834-18.38a7.185 7.185 0 0 1 1.901-7.167c.277-.33.53-.68.76-1.045a70.335 70.335 0 0 0 1.75-12.678.97.97 0 0 1 .74-.856.95.95 0 0 1 1.027.457 154.56 154.56 0 0 0 13.191 19.217c5.589 6.234 16.937 9.257 17.108 9.275a.971.971 0 0 1 .608.514.92.92 0 0 1 0 .798l-3.041 6.767c-.083.179-.215.33-.38.437a26.763 26.763 0 0 1-12.546 3.364ZM72.244 51.186c-.361 3.65-1.008 9.257-1.73 10.53-.283.46-.601.9-.95 1.312a5.304 5.304 0 0 0-1.521 5.417c1.102 3.802 6.12 14.884 14.503 17.108a23.645 23.645 0 0 0 16.062-2.32l2.433-5.436c-3.08-.931-11.937-3.991-16.898-9.504a134.14 134.14 0 0 1-11.9-17.107Z" data-color="1"></path>
        <path fill="#000000" d="m82.3 72.798 10.036 13.268 7.014-2.205.418-2.947-17.469-8.116Z" data-color="1"></path>
        <path fill="#000000" d="M92.336 87.016a.911.911 0 0 1-.76-.38L81.538 73.33a.951.951 0 0 1 1.16-1.444l17.468 8.116a.97.97 0 0 1 .532 1.008l-.418 2.946a.93.93 0 0 1-.646.76L92.62 86.94a.741.741 0 0 1-.285.076ZM85.36 75.25l7.318 9.713 5.797-1.9.247-1.654L85.36 75.25Z" data-color="1"></path>
        <path fill="#ffffff" d="M76.94 11.269s-6.312 7.717-7.015 15.872a113.78 113.78 0 0 0 1.635 24.976c.703 2.338 5.38 15.416 8.648 18.685 3.27 3.27 12.83 10.512 17.108 10.512 4.276 0 11.195-3.973 15.415-9.504 4.22-5.532 9.789-24.71 10.265-28.018.475-3.308 1.159-23.095-1.901-27.999-3.061-4.904-11.671-13.306-23.59-12.374-11.917.931-15.472 3.174-20.566 7.85Z" data-color="2"></path>
        <path fill="#000000" d="M97.24 82.245c-4.79 0-14.75-7.812-17.716-10.797-3.554-3.554-8.344-17.335-8.877-19.008a116.708 116.708 0 0 1-1.672-25.337c.722-8.364 6.957-16.062 7.223-16.385v-.114c5.341-4.847 9.162-7.242 21.099-8.174 12.469-.97 21.46 7.965 24.463 12.812 3.231 5.227 2.49 25.3 1.901 28.645-.589 3.345-6.102 22.657-10.436 28.512-3.934 5.398-11.195 9.846-15.985 9.846Zm-19.617-70.33c-.532.666-6.12 7.87-6.748 15.207a113.35 113.35 0 0 0 1.597 24.71c.723 2.395 5.38 15.207 8.402 18.286 3.592 3.592 12.754 10.226 16.366 10.226 3.611 0 10.53-3.801 14.655-9.2 4.125-5.398 9.618-24.368 10.074-27.58.551-3.802 1.027-22.924-1.73-27.372-2.756-4.448-11.138-12.811-22.695-11.918-11.557.893-14.826 3.003-19.92 7.641Z" data-color="1"></path>
        <path fill="#000000" d="M122.14 18.701a10.822 10.822 0 0 0-1.084-3.003c-3.041-4.904-11.67-13.306-23.588-12.374-11.919.931-15.397 3.27-20.53 7.926 0 0-6.31 7.717-7.013 15.872-.242 3.989-.21 7.99.095 11.975 2.908-1.464 12.982-6.672 12.982-8.459 0-2.11-4.675-10.036-.475-12.602 4.201-2.566 13.306-3.517 17.754-.703 4.448 2.813 7.698 6.995 10.967 5.588 2.852-1.217 8.554-3.517 10.892-4.22Z" data-color="1"></path>
        <path fill="#000000" d="M70.02 40.047a1.085 1.085 0 0 1-.475-.114 1.007 1.007 0 0 1-.475-.76 91.614 91.614 0 0 1-.095-12.127c.722-8.364 6.957-16.062 7.223-16.385 5.436-4.961 9.257-7.356 21.194-8.288 12.469-.97 21.46 7.965 24.463 12.812a12.143 12.143 0 0 1 1.217 3.288.971.971 0 0 1-.647 1.14c-2.186.666-7.774 2.89-10.796 4.182-3.022 1.293-5.494-.874-8.326-3.079-1.121-.874-2.281-1.787-3.535-2.585-4.049-2.566-12.736-1.73-16.746.703-2.205 1.35-1.217 4.885 0 8.668.432.998.714 2.055.836 3.136 0 .684 0 2.51-13.496 9.314a.875.875 0 0 1-.342.095Zm7.603-28.094s-6.025 7.509-6.69 15.207a82.204 82.204 0 0 0 0 10.378c6.956-3.573 10.872-6.234 11.195-7.07a17.477 17.477 0 0 0-.741-2.396c-1.198-3.44-3.003-8.648.703-10.91 4.543-2.776 14.085-3.631 18.742-.704a44.303 44.303 0 0 1 3.802 2.7c2.851 2.242 4.676 3.573 6.387 2.831 2.68-1.14 7.47-3.06 10.131-3.972a8.458 8.458 0 0 0-.761-1.9c-2.794-4.525-11.138-12.812-22.695-11.919-11.557.893-14.845 3.022-19.977 7.603l-.096.152Z" data-color="1"></path>
        <path fill="#ffffff" d="M76.464 43.697s-3.498-10.968-7.603-9.504c-4.106 1.463-1.407 10.036.703 14.009 2.11 3.972 5.588.456 5.588.456" data-color="2"></path>
        <path fill="#000000" d="M72.073 50.977a2.505 2.505 0 0 1-.532 0 4.029 4.029 0 0 1-2.928-2.357c-1.767-3.365-3.915-9.504-2.528-13.04a3.802 3.802 0 0 1 2.376-2.319 3.458 3.458 0 0 1 2.7.247c3.516 1.787 5.949 9.124 6.215 9.942a.949.949 0 0 1-.627 1.197.97.97 0 0 1-1.198-.608c-.646-2.053-2.87-7.603-5.246-8.839a1.596 1.596 0 0 0-1.236-.133 1.902 1.902 0 0 0-1.235 1.217c-1.065 2.66.798 8.306 2.47 11.404.438.818.951 1.293 1.522 1.369a3.688 3.688 0 0 0 2.566-1.122.952.952 0 0 1 1.35 0 .97.97 0 0 1 0 1.35 5.95 5.95 0 0 1-3.67 1.692Z" data-color="1"></path>
        <path fill="#000000" d="M107.732 61.583c-.894 0-2.072-.095-3.536-.247-.513 0-.931-.114-1.121-.114a.95.95 0 1 1 0-1.9c.228 0 .703 0 1.33.113 1.417.197 2.849.26 4.277.19.19-2.413 1.426-12.963 2.186-14.484a25.585 25.585 0 0 1 4.429-4.733 7.606 7.606 0 0 1 6.577-2.319.972.972 0 0 1 .817 1.065.941.941 0 0 1-.358.635.933.933 0 0 1-.706.182 5.701 5.701 0 0 0-4.98 1.768 25.625 25.625 0 0 0-4.087 4.258 114.545 114.545 0 0 0-1.901 14.047 1.299 1.299 0 0 1-.437.97 3.63 3.63 0 0 1-2.49.57Z" data-color="1"></path>
        <path fill="#000000" d="m106.572 68.692-5.911-.399a.99.99 0 0 1-.875-1.026.95.95 0 0 1 1.027-.875l5.835.457a.968.968 0 0 1 .875 1.026.954.954 0 0 1-.951.817Z" data-color="1"></path>
        <path fill="#000000" d="M107.276 42.556a.929.929 0 0 1-.57-.19 19.161 19.161 0 0 0-12.812-3.326.97.97 0 0 1-1.102-.78.988.988 0 0 1 .798-1.102 20.7 20.7 0 0 1 14.256 3.688.95.95 0 0 1 .19 1.33.963.963 0 0 1-.76.38Z" data-color="1"></path>
        <path fill="#000000" d="M118.376 55.672h-.931a11.975 11.975 0 0 1-6.596-3.022h-1.52c-.875.836-3.498 2.794-8.858 2.566-6.5-.248-15.51-6.216-15.89-6.463a.932.932 0 0 1-.419-.95l1.16-6.995a.97.97 0 0 1 .95-.799c3.811.03 7.618.264 11.405.703a72.255 72.255 0 0 1 14.066 3.802 17.582 17.582 0 0 1 9.504-1.54 5.701 5.701 0 0 1 3.934 1.654 1.687 1.687 0 0 1 .38 1.312l-.684 6.253a1.042 1.042 0 0 1-.19.476 8.338 8.338 0 0 1-6.311 3.003Zm-9.504-4.98h2.338a.99.99 0 0 1 .704.304 9.977 9.977 0 0 0 5.702 2.737 6.274 6.274 0 0 0 5.284-2.015l.666-6.006a4.83 4.83 0 0 0-2.681-.837c-3-.349-6.037.18-8.743 1.52a.897.897 0 0 1-.818 0 74.587 74.587 0 0 0-14.008-3.8c-4.391-.533-8.573-.666-10.284-.704l-.931 5.588c1.9 1.255 9.276 5.703 14.408 5.817 5.702.209 7.603-2.167 7.603-2.205a1.01 1.01 0 0 1 .798-.4h-.038Z" data-color="1"></path>
        <path fill="#000000" d="M86.272 41.853a.895.895 0 0 1-.323 0l-12.85-4.676a.95.95 0 0 1 .647-1.787l12.85 4.676a.95.95 0 0 1 .57 1.217.988.988 0 0 1-.894.57Z" data-color="1"></path>
        <path fill="#000000" d="M85.094 48.848a.856.856 0 0 1-.514-.152l-8.173-5.36a.95.95 0 0 1-.266-1.312.93.93 0 0 1 1.311-.285l8.174 5.38a.95.95 0 0 1 .266 1.31.894.894 0 0 1-.798.419Z" data-color="1"></path>
        <path fill="#000000" d="M101.897 47.194c0 1.217-.742 2.167-1.445 2.11-.703-.057-1.197-1.102-1.102-2.319.095-1.216.741-2.167 1.444-2.11.704.057 1.217 1.103 1.103 2.32Z" data-color="1"></path>
        <path fill="#000000" d="M117.198 48.468c0 1.235-.76 2.167-1.464 2.11-.703-.057-1.197-1.084-1.102-2.3.095-1.217.76-2.167 1.463-2.11.704.057 1.198 1.083 1.103 2.3Z" data-color="1"></path>
        <path fill="#ffffff" d="M61.296 53.733 71.56 81.979l-15.207 8.173s-3.269-19.597-3.04-22.41c.227-2.813 1.406-8.402 2.812-9.504 1.407-1.103 2.833-8.459 5.17-4.505Z" data-color="2"></path>
        <path fill="#000000" d="M56.392 91.103a1.027 1.027 0 0 1-.419-.095.894.894 0 0 1-.513-.703c-.342-2.015-3.288-19.807-3.06-22.64.19-2.185 1.273-8.648 3.155-10.225a9.192 9.192 0 0 0 1.084-2.015c.836-1.901 1.691-3.802 3.193-3.802s2.034 1.217 2.28 1.635v.152L72.53 81.599a.913.913 0 0 1-.437 1.16l-15.206 8.173a1 1 0 0 1-.495.17Zm3.497-37.598c-.638.82-1.15 1.73-1.52 2.7a7.87 7.87 0 0 1-1.597 2.698c-.95.799-2.205 5.703-2.471 8.915-.172 2.053 1.9 14.712 2.813 20.909l13.305-7.147-9.96-27.39c-.38-.609-.57-.685-.57-.685Z" data-color="1"></path>
        <path fill="#ffffff" d="m189.143 84.85 6.159 1.672 1.692 6.177-4.22-1.406-3.631-6.444Z" data-color="2"></path>
        <path fill="#000000" d="M196.994 93.65c-.1.02-.204.02-.304 0l-4.201-1.388a.93.93 0 0 1-.532-.437l-3.65-6.463a.951.951 0 0 1 0-1.045.936.936 0 0 1 1.008-.323l6.158 1.672a.97.97 0 0 1 .685.666l1.672 6.177a.893.893 0 0 1-.266.931.93.93 0 0 1-.57.21Zm-3.555-3.137 2.167.723-1.064-3.935-3.46-.931 2.357 4.143Z" data-color="1"></path>
        <path fill="#ffffff" d="m182.414 86.256 6.729-1.407 3.631 6.444-3.555.513-6.805-5.55Z" data-color="2"></path>
        <path fill="#000000" d="M189.22 92.756a.99.99 0 0 1-.609-.209l-6.805-5.569a.916.916 0 0 1-.323-.95.955.955 0 0 1 .723-.704l6.728-1.406a.913.913 0 0 1 1.027.456l3.649 6.444a.93.93 0 0 1 0 .893.962.962 0 0 1-.703.532l-3.573.513h-.114Zm-4.676-5.987 4.942 4.049 1.786-.266-2.623-4.639-4.105.856Z" data-color="1"></path>
        <path fill="#ffffff" d="M175.173 85.115s4.771-.836 6.177-.836c1.407 0 5.322 7.299 5.322 7.299l-5.056.285-6.443-6.748Z" data-color="2"></path>
        <path fill="#000000" d="M181.56 92.814a.991.991 0 0 1-.685-.305l-6.443-6.728a.967.967 0 0 1-.228-.95.948.948 0 0 1 .741-.647c.494 0 4.904-.855 6.349-.855 1.444 0 3.364 2.623 6.158 7.793a.968.968 0 0 1-.779 1.406l-5.056.285h-.057Zm-4.486-7.052 4.904 5.113 3.098-.171a21.575 21.575 0 0 0-3.896-5.494c-.685.02-2.586.304-4.106.552Z" data-color="1"></path>
        <path fill="#ffffff" d="m86.044 92.262 28.512-8.401s21.707-10.987 23.342-11.405c1.634-.418 10.967 5.132 14.009 7.47 3.041 2.338 5.36 4.904 8.154 5.703 2.794.798 8.877.684 8.421 2.794-.457 2.11.931 2.794-3.27 3.497-4.2.704-11.671.475-13.552 1.179a61.986 61.986 0 0 1-11.899 3.953 86.716 86.716 0 0 1-12.147 1.407l-44.802 16.1s2.757-23.456 3.232-22.297Z" data-color="2"></path>
        <path fill="#000000" d="M82.775 115.376a.877.877 0 0 1-.609-.209.931.931 0 0 1-.342-.855c2.737-22.81 3.117-22.924 4.049-23.038h.152l28.322-8.326c2.072-1.064 21.669-10.967 23.342-11.404 2.49-.723 13.305 6.443 14.845 7.603.817.627 1.597 1.292 2.338 1.9a15.203 15.203 0 0 0 5.493 3.517 23.6 23.6 0 0 0 2.756.456c2.662.361 5.152.704 6.045 1.901a1.781 1.781 0 0 1 .285 1.483 4.852 4.852 0 0 0-.095 1.121c0 1.901-.798 2.585-3.935 3.099a65.54 65.54 0 0 1-7.394.589 33.79 33.79 0 0 0-5.968.532l-1.407.57a52.41 52.41 0 0 1-10.644 3.44 91.25 91.25 0 0 1-12.146 1.426l-44.688 16.043a.85.85 0 0 1-.4.152Zm3.915-22.372c-.551 2.262-1.9 12.621-2.794 19.958l43.376-15.587a.626.626 0 0 1 .285 0 87.323 87.323 0 0 0 11.976-1.387 51.506 51.506 0 0 0 10.302-3.326 19.64 19.64 0 0 1 1.463-.59 28.192 28.192 0 0 1 6.539-.665 69.335 69.335 0 0 0 7.166-.551c2.357-.4 2.357-.551 2.357-1.236a6.178 6.178 0 0 1 .152-1.54c-.304-.57-3.307-.969-4.733-1.178-1.102-.152-2.148-.285-2.984-.494a16.555 16.555 0 0 1-6.235-3.916c-.722-.608-1.482-1.235-2.281-1.9-3.478-2.68-11.766-7.452-13.305-7.319-1.084.323-14.769 7.147-23.133 11.405l-28.15 8.326Z" data-color="1"></path>
        <path fill="#ffffff" d="M159.966 85.495c-2.794-.703-5.132-3.269-8.154-5.702-3.022-2.433-12.374-7.945-14.009-7.47-1.635.475-23.342 11.405-23.342 11.405l-14.58 4.295a13.477 13.477 0 0 0-2.223 11.101c.741 3.25 3.802 5.569 7.261 7.204l22.734-8.002a86.734 86.734 0 0 0 12.146-1.407 61.963 61.963 0 0 0 11.899-3.953c1.901-.704 9.352-.476 13.552-1.179 4.201-.703 2.795-1.407 3.27-3.498.475-2.09-5.684-2.11-8.554-2.794Z" data-color="2"></path>
        <path fill="#000000" d="M104.976 107.412a1.038 1.038 0 0 1-.418-.095c-4.448-2.11-7.071-4.752-7.775-7.85a14.276 14.276 0 0 1 2.376-11.862.988.988 0 0 1 .513-.36l14.58-4.297c2.072-1.064 21.669-10.967 23.342-11.404 2.49-.723 13.305 6.443 14.845 7.603.817.627 1.596 1.292 2.338 1.9a15.203 15.203 0 0 0 5.493 3.517c.909.206 1.829.359 2.756.456 2.661.361 5.151.704 6.045 1.901a1.796 1.796 0 0 1 .285 1.483 4.745 4.745 0 0 0-.095 1.121c0 1.901-.798 2.585-3.935 3.099a65.54 65.54 0 0 1-7.394.589 33.78 33.78 0 0 0-5.968.532l-1.407.57a52.41 52.41 0 0 1-10.644 3.44 91.249 91.249 0 0 1-12.147 1.426l-22.486 8.079a.87.87 0 0 1-.304.152Zm-4.448-18.438a12.43 12.43 0 0 0-1.9 10.074c.55 2.414 2.698 4.562 6.386 6.387l22.258-8.002a.626.626 0 0 1 .285 0c4.019-.187 8.02-.65 11.975-1.388a51.494 51.494 0 0 0 10.303-3.326 19.64 19.64 0 0 1 1.463-.59 28.192 28.192 0 0 1 6.539-.665 69.335 69.335 0 0 0 7.166-.551c2.357-.4 2.357-.551 2.357-1.236a6.132 6.132 0 0 1 .152-1.54c-.304-.57-3.307-.969-4.733-1.178-1.102-.152-2.148-.285-2.984-.494a16.557 16.557 0 0 1-6.235-3.916c-.722-.608-1.482-1.235-2.281-1.9-3.478-2.68-11.766-7.452-13.305-7.319-1.084.323-14.77 7.147-23.133 11.405l-14.313 4.239Z" data-color="1"></path>
        <path fill="#ffffff" d="M127.348 83.157h44.84v8.174h-44.84a3.952 3.952 0 0 1-3.953-3.954v-.266a3.951 3.951 0 0 1 3.953-3.954Z" data-color="2"></path>
        <path fill="#000000" d="M172.17 92.281h-44.821a4.924 4.924 0 0 1-4.923-4.904v-.266a4.921 4.921 0 0 1 4.923-4.904h44.821a.952.952 0 0 1 .95.95v8.174a.965.965 0 0 1-.278.672.955.955 0 0 1-.672.278Zm-44.821-8.173a3.022 3.022 0 0 0-3.023 3.003v.19a3.023 3.023 0 0 0 3.023 3.004h43.87v-6.273l-43.87.076Z" data-color="1"></path>
        <path fill="#000000" d="M123.433 87.72a4.068 4.068 0 0 0 4.029 3.61h44.707v-3.61h-48.736Z" data-color="1"></path>
        <path fill="#000000" d="M172.169 92.281h-44.707a5.036 5.036 0 0 1-4.98-4.467 1.004 1.004 0 0 1 .047-.396c.043-.127.111-.245.2-.345a.978.978 0 0 1 .704-.304h48.736a.95.95 0 0 1 .951.95v3.612a.947.947 0 0 1-.279.672.95.95 0 0 1-.672.278Zm-47.52-3.611a3.156 3.156 0 0 0 2.775 1.71h43.719v-1.71h-46.494Z" data-color="1"></path>
        <path fill="#ffffff" d="M140.958 73.995s4.676-2.338 6.311-1.178c1.634 1.16 7.698 9.504 7.698 10.74 0 1.235-1.635 2.11-3.022 2.11-1.388 0-3.973-2.11-3.973-2.11l-7.014-9.562Z" data-color="2"></path>
        <path fill="#000000" d="M151.869 86.674a10.088 10.088 0 0 1-4.581-2.32l-.152-.17-7.014-9.504a.899.899 0 0 1-.152-.78.97.97 0 0 1 .494-.627c.855-.437 5.284-2.528 7.28-1.083 1.597 1.121 8.097 9.77 8.097 11.5 0 1.73-2.091 2.984-3.972 2.984Zm-3.308-3.707a8.595 8.595 0 0 0 3.289 1.806c1.064 0 2.072-.722 2.072-1.16a50.635 50.635 0 0 0-7.3-9.96c-.589-.418-2.509 0-4.295.78l6.234 8.534Z" data-color="1"></path>
        <path fill="#ffffff" d="M147.193 72.874s6.063-.931 6.995-.228c.931.703 5.835 12.85 5.835 12.85a18.7 18.7 0 0 1-3.801 0c-1.407-.248-1.407-1.901-1.407-1.901l-7.622-10.72Z" data-color="2"></path>
        <path fill="#000000" d="M157.894 86.54a12.451 12.451 0 0 1-1.748-.113 2.684 2.684 0 0 1-2.186-2.471l-7.603-10.512a.969.969 0 0 1 .627-1.501c2.965-.456 6.691-.837 7.717 0 1.027.836 3.802 7.603 6.159 13.305a.933.933 0 0 1 0 .837.896.896 0 0 1-.723.456c-.747.044-1.496.044-2.243 0Zm-9.009-12.925 6.786 9.505a.99.99 0 0 1 .171.55c0 .134 0 .837.608.932.733.077 1.472.077 2.205 0a102.222 102.222 0 0 0-5.094-11.272 22.537 22.537 0 0 0-4.676.285Z" data-color="1"></path>
        <path fill="#ffffff" d="M155.822 74.756a7.603 7.603 0 0 1 3.802.931 30.658 30.658 0 0 1 5.36 7.223c.247 1.179-.456 1.635-1.901 1.635a7.599 7.599 0 0 1-3.497-1.9l-3.764-7.89Z" data-color="2"></path>
        <path fill="#000000" d="M163.064 85.495a8.06 8.06 0 0 1-4.124-2.09 1.127 1.127 0 0 1-.228-.305l-3.802-7.945a.968.968 0 0 1 0-.912.912.912 0 0 1 .798-.438 8.04 8.04 0 0 1 4.334 1.14c1.179.951 5.398 6.236 5.703 7.794a2.186 2.186 0 0 1-.381 1.901 2.889 2.889 0 0 1-2.3.855Zm-2.718-3.402a6.236 6.236 0 0 0 2.718 1.502c.78 0 .951-.153.951-.153a.641.641 0 0 0 0-.342 31.761 31.761 0 0 0-5.018-6.671 3.654 3.654 0 0 0-1.578-.57l2.927 6.234Z" data-color="1"></path>
        <path fill="#ffffff" d="M125.01 79.413s11.671-6.064 12.849-6.995c1.179-.931 10.037 8.877 10.968 9.504a1.996 1.996 0 0 1-1.407 3.27c-1.9 0-3.022-.229-6.291-2.567-3.27-2.338-4.448-3.022-4.448-3.022" data-color="2"></path>
        <path fill="#000000" d="M147.421 86.199c-2.034 0-3.384-.266-6.843-2.737-3.46-2.472-4.372-2.985-4.372-3.004a.953.953 0 0 1-.567-.98.938.938 0 0 1 .404-.674.947.947 0 0 1 1.132.039s1.236.74 4.505 3.079c3.27 2.338 4.163 2.376 5.703 2.376a.836.836 0 0 0 .817-.59 1.158 1.158 0 0 0 0-.969 27.726 27.726 0 0 1-2.129-2.09 60.412 60.412 0 0 0-7.964-7.3c-2.053 1.369-11.576 6.33-12.717 6.92a.952.952 0 1 1-.874-1.693c4.486-2.337 11.899-6.272 12.697-6.9 1.255-.988 3.156.419 10.208 7.604.855.855 1.729 1.767 1.9 1.9a2.68 2.68 0 0 1 .666 2.985 2.739 2.739 0 0 1-2.566 2.034Z" data-color="1"></path>
        <path fill="#ffffff" d="M189.219 91.806h-27.086l9.979 17.278v9.105h7.128l-.19-9.105 10.169-17.278Z" data-color="2"></path>
        <path fill="#000000" d="M179.24 119.14h-7.128a.953.953 0 0 1-.95-.951v-8.839l-9.846-17.107a.945.945 0 0 1 0-.95.953.953 0 0 1 .817-.475h27.087a.97.97 0 0 1 .817 1.444L180.02 109.37l.171 8.839a.93.93 0 0 1-.285.684.897.897 0 0 1-.666.248Zm-6.177-1.901h5.208l-.171-8.136c.006-.172.051-.342.133-.494l9.314-15.852h-23.779l9.143 15.852c.09.142.136.307.133.475l.019 8.155Z" data-color="1"></path>
        <path fill="#ffffff" d="M185.836 131.78v-13.914h-16.917v13.914a21.805 21.805 0 0 0-13.305 20.072c0 9.504 13.533 23.304 19.255 28.722a3.63 3.63 0 0 0 4.999 0c5.702-5.418 19.255-19.218 19.255-28.722a21.783 21.783 0 0 0-13.287-20.072Z" data-color="2"></path>
        <path fill="#000000" d="M177.377 182.512a4.56 4.56 0 0 1-3.155-1.254c-5.873-5.551-19.559-19.54-19.559-29.406a22.815 22.815 0 0 1 13.305-20.699v-13.306a.952.952 0 0 1 .951-.95h16.917a.967.967 0 0 1 .95.95v13.306a22.695 22.695 0 0 1 13.306 20.699c0 9.866-13.667 23.855-19.54 29.406a4.617 4.617 0 0 1-3.175 1.254Zm-7.508-63.696v12.964a.948.948 0 0 1-.589.874 20.906 20.906 0 0 0-12.716 19.198c0 9.124 13.305 22.639 19.008 28.018a2.677 2.677 0 0 0 3.706 0c5.703-5.379 19.008-18.894 19.008-28.018a20.906 20.906 0 0 0-12.716-19.198.966.966 0 0 1-.57-.874v-12.964h-15.131Z" data-color="1"></path>
        <path fill="#000000" d="M158.959 154.799c2.3 7.907 11.88 17.639 16.233 21.764a3.154 3.154 0 0 0 4.352 0c4.353-4.125 13.933-13.857 16.252-21.764h-36.837Z" data-color="1"></path>
        <path fill="#000000" d="M177.377 178.388a4.146 4.146 0 0 1-2.832-1.122c-5.17-4.904-14.199-14.294-16.518-22.201a.975.975 0 0 1 .162-.829.972.972 0 0 1 .751-.388h36.856a.98.98 0 0 1 .76.38 1.001 1.001 0 0 1 .153.837c-2.3 7.907-11.405 17.297-16.499 22.201a4.185 4.185 0 0 1-2.833 1.122Zm-17.107-22.639c2.832 7.603 11.728 16.499 15.587 20.13a2.224 2.224 0 0 0 3.041 0c3.802-3.631 12.735-12.603 15.568-20.13H160.27Z" data-color="1"></path>
        <path fill="#ffffff" d="M211.763 160.007h-60.237v3.554h60.237v-3.554Z" data-color="2"></path>
        <path fill="#000000" d="M211.763 164.531h-60.236a.952.952 0 0 1-.951-.951v-3.573a.952.952 0 0 1 .951-.951h60.236a.952.952 0 0 1 .951.951v3.573c0 .252-.1.494-.279.672a.947.947 0 0 1-.672.279Zm-59.286-1.901h58.336v-1.673h-58.336v1.673Z" data-color="1"></path>
        <path fill="#ffffff" d="M228.832 227.98V83.595h-3.554V227.98h3.554Z" data-color="2"></path>
        <path fill="#000000" d="M228.832 228.93h-3.554a.95.95 0 0 1-.951-.95V83.518a.952.952 0 0 1 .951-.95h3.554a.95.95 0 0 1 .951.95V227.98a.95.95 0 0 1-.951.95Zm-2.604-1.901h1.654V84.469h-1.654v142.56Z" data-color="1"></path>
        <path fill="#000000" d="M242.328 162.744h-30.565a.95.95 0 1 1 0-1.901h30.565a.947.947 0 0 1 .95.951.952.952 0 0 1-.95.95Z" data-color="1"></path>
        <path fill="#000000" d="M226.894 167.439a5.341 5.341 0 1 0 0-10.683 5.341 5.341 0 0 0 0 10.683Z" data-color="1"></path>
        <path fill="#000000" d="M226.894 168.389a6.295 6.295 0 0 1-5.813-3.884 6.29 6.29 0 0 1 8.22-8.22 6.291 6.291 0 0 1 3.884 5.813 6.31 6.31 0 0 1-6.291 6.291Zm0-10.682a4.387 4.387 0 0 0-4.057 2.71 4.399 4.399 0 0 0 .952 4.786 4.385 4.385 0 0 0 4.785.951 4.394 4.394 0 0 0 2.711-4.056 4.404 4.404 0 0 0-2.693-4.126 4.4 4.4 0 0 0-1.698-.341v.076Z" data-color="1"></path>
        <path fill="#ffffff" d="m43.542 85.724 2.813 15.396 39.69-8.858-1.902 37.807-27.77 7.47s-20.073 12.146-34.785 9.333c-14.712-2.813-18.913-8.401-18.666-12.83.247-4.429 2.09-31.972 2.09-31.972s-1.159-17.981.229-20.32c1.388-2.337 11.918-11.195 16.822-11.195" data-color="2"></path>
        <path fill="#000000" d="M26.359 148.26a24.722 24.722 0 0 1-4.923-.456C3.397 144.382 1.819 137.007 1.99 133.985c.21-4.391 2.11-31.705 2.11-31.991-.19-2.927-1.102-18.266.38-20.737 1.483-2.471 12.26-11.652 17.621-11.652a.95.95 0 0 1 .95.95.97.97 0 0 1-.95.95c-4.467 0-14.712 8.592-16.005 10.74-.78 1.293-.665 11.063-.095 19.749 0 .4-1.9 27.714-2.09 32.105-.286 5.227 6.405 9.656 17.886 11.842 14.199 2.699 33.93-9.086 34.214-9.219l.247-.095 27.106-7.299 1.768-35.868-38.454 8.591a.924.924 0 0 1-.741-.133.887.887 0 0 1-.4-.627l-2.812-15.396a.965.965 0 1 1 1.9-.343L47.25 99.98l38.586-8.65a.875.875 0 0 1 .817.21.913.913 0 0 1 .323.76l-1.9 37.826a.932.932 0 0 1-.704.856l-27.6 7.451c-1.634.969-16.879 9.827-30.412 9.827Z" data-color="1"></path>
        <path fill="#000000" d="M23.241 107.906a.93.93 0 0 1-.912-.703.952.952 0 0 1 .684-1.16l23.114-5.835a.92.92 0 0 1 .718.095.915.915 0 0 1 .422.589.95.95 0 0 1-.684 1.159l-23.114 5.836-.228.019Z" data-color="1"></path>
        <path fill="#000000" d="M8.073 123.549h-.171a.92.92 0 0 1-.598-.408.925.925 0 0 1-.125-.713c1.217-5.569 8.117-12.773 8.421-13.078a.958.958 0 0 1 1.35-.019.956.956 0 0 1 .019 1.35s-6.843 7.109-7.927 12.146a.951.951 0 0 1-.97.722Z" data-color="1"></path>
        <path fill="#000000" d="M21.378 103.705a.974.974 0 0 1-.874-.551.952.952 0 0 1 .475-1.255c.475-.209 11.405-4.999 22.544-2.642a.949.949 0 0 1 .722 1.141.938.938 0 0 1-.409.597.93.93 0 0 1-.713.125c-10.55-2.243-21.25 2.452-21.365 2.509a.858.858 0 0 1-.38.076Z" data-color="1"></path>
        <path fill="#000000" d="M173.405 153.297a.95.95 0 0 1-.951-.95v-58.07a.948.948 0 0 1 .951-.95.95.95 0 0 1 .95.95v58.07a.944.944 0 0 1-.278.672.95.95 0 0 1-.672.278Z" data-color="1"></path>
        <path fill="#000000" d="M382.436 228.256h-183.71v8.445h183.71v-8.445Z" data-color="1"></path>
        <path fill="#000000" d="M382.436 237.635H198.669a.945.945 0 0 1-.665-.274.932.932 0 0 1-.275-.66v-8.445a.934.934 0 0 1 .94-.934H382.38a.934.934 0 0 1 .94.934v8.445a.948.948 0 0 1-.26.636.965.965 0 0 1-.624.298Zm-182.77-1.869h181.829v-6.576H199.666v6.576Z" data-color="1"></path>
        <path fill="#000000" d="M239.113 246.827h34.82v272.006h-34.82v9.285h102.916v-9.285H307.21V246.827h34.819v-9.286H239.113v9.286Z" data-color="1"></path>
        <path fill="#000000" d="M342.03 529.053H239.114a.943.943 0 0 1-.941-.935v-9.341a.93.93 0 0 1 .276-.661.942.942 0 0 1 .665-.273h33.86V247.761h-33.86a.939.939 0 0 1-.941-.934v-9.342a.943.943 0 0 1 .941-.934H342.03c.249 0 .489.099.665.274a.932.932 0 0 1 .275.66v9.342a.94.94 0 0 1-.94.934h-33.86v270.138h33.86a.934.934 0 0 1 .94.934v9.342a.928.928 0 0 1-.294.624.948.948 0 0 1-.646.254Zm-101.976-1.869h101.035v-7.473h-33.86a.934.934 0 0 1-.94-.934V246.808a.946.946 0 0 1 .28-.655.966.966 0 0 1 .66-.279h33.86v-7.473H240.054v7.473h33.86a.939.939 0 0 1 .941.934v272.025a.93.93 0 0 1-.276.661.942.942 0 0 1-.665.273h-33.86v7.417Z" data-color="1"></path>
        <path fill="#ffffff" d="m321.119 168.993-2.523.544-1.816-2.328 5.026-1.077-.687 2.861Z" data-color="2"></path>
        <path fill="#000000" d="M318.596 170.05a.518.518 0 0 1-.4-.195l-1.816-2.329a.5.5 0 0 1 .067-.703.518.518 0 0 1 .231-.117l5.026-1.026a.48.48 0 0 1 .472.144.508.508 0 0 1 .133.472l-.698 2.872a.489.489 0 0 1-.389.379l-2.513.544-.113-.041Zm-.903-2.482 1.108 1.436 1.887-.411.431-1.764-3.426.739Z" data-color="1"></path>
        <path fill="#ffffff" d="m319.218 154.097-5.024 1.083 2.561 11.882 5.023-1.082-2.56-11.883Z" data-color="2"></path>
        <path fill="#000000" d="M316.75 167.578a.463.463 0 0 1-.277-.082.515.515 0 0 1-.215-.329l-2.554-11.888a.513.513 0 0 1 .067-.385.495.495 0 0 1 .322-.22l5.027-1.087a.57.57 0 0 1 .389.072.53.53 0 0 1 .226.328l2.554 11.878a.509.509 0 0 1-.205.534.51.51 0 0 1-.185.081l-5.026 1.026-.123.072Zm-1.949-12.001 2.349 10.883 4.021-.872-2.339-10.873-4.031.862Z" data-color="1"></path>
        <path fill="#ffffff" d="m312.35 169.086-2.308-1.149.051-2.954 4.595 2.308-2.338 1.795Z" data-color="2"></path>
        <path fill="#000000" d="M312.339 169.598a.587.587 0 0 1-.226-.051l-2.297-1.159a.511.511 0 0 1-.288-.461l.052-2.955a.496.496 0 0 1 .492-.496c.086 0 .171.022.246.066l4.595 2.308a.512.512 0 0 1 .277.41.482.482 0 0 1-.195.451l-2.338 1.805a.576.576 0 0 1-.318.082Zm-1.775-1.979 1.724.861 1.436-1.097-3.139-1.58-.021 1.816Z" data-color="1"></path>
        <path fill="#ffffff" d="m320.209 156.28-4.593-2.305-5.452 10.864 4.593 2.305 5.452-10.864Z" data-color="2"></path>
        <path fill="#000000" d="M314.749 167.67a.533.533 0 0 1-.225 0l-4.596-2.308a.523.523 0 0 1-.236-.687l5.457-10.873a.567.567 0 0 1 .298-.256.507.507 0 0 1 .39 0l4.595 2.308a.497.497 0 0 1 .226.687l-5.427 10.842a.587.587 0 0 1-.297.267l-.185.02Zm-3.908-3.077 3.683 1.846 4.995-9.949-3.682-1.847-4.996 9.95Z" data-color="1"></path>
        <path fill="#ffffff" d="m305.2 165.875-2.297-1.149.041-2.954 4.595 2.308-2.339 1.795Z" data-color="2"></path>
        <path fill="#000000" d="M305.2 166.388a.573.573 0 0 1-.226 0l-2.308-1.159a.503.503 0 0 1-.277-.462v-2.954a.504.504 0 0 1 .246-.431.531.531 0 0 1 .493 0l4.605 2.308a.527.527 0 0 1 .238.668.522.522 0 0 1-.156.204l-2.348 1.795a.489.489 0 0 1-.267.031Zm-1.785-1.98 1.723.862 1.436-1.098-3.128-1.569-.031 1.805Z" data-color="1"></path>
        <path fill="#ffffff" d="m313.069 153.079-4.593-2.305-5.452 10.864 4.593 2.305 5.452-10.864Z" data-color="2"></path>
        <path fill="#000000" d="M307.61 164.46a.496.496 0 0 1-.236 0l-4.595-2.308a.5.5 0 0 1-.282-.495.507.507 0 0 1 .057-.193l5.497-10.913a.528.528 0 0 1 .298-.257.568.568 0 0 1 .39 0l4.605 2.308a.53.53 0 0 1 .226.698l-5.519 10.883a.484.484 0 0 1-.297.256l-.144.021Zm-3.908-3.078 3.672 1.847 4.996-9.95-3.683-1.846-4.985 9.949Z" data-color="1"></path>
        <path fill="#000000" d="M309.2 189.959h-38.332v9.334H309.2v-9.334Z" data-color="1"></path>
        <path fill="#000000" d="M309.2 199.796h-38.331a.514.514 0 0 1-.513-.513v-9.324a.516.516 0 0 1 .513-.513H309.2a.514.514 0 0 1 .513.513v9.324a.514.514 0 0 1-.513.513Zm-37.818-1.026h37.306v-8.298h-37.306v8.298Z" data-color="1"></path>
        <path fill="#ffffff" d="M280.039 211.038h54.005a8.339 8.339 0 0 1 8.339 8.339v7.806h-62.344v-16.145Z" data-color="2"></path>
        <path fill="#000000" d="M342.393 227.686h-62.354a.512.512 0 0 1-.513-.513v-16.135a.514.514 0 0 1 .513-.513h54.015a8.87 8.87 0 0 1 6.27 2.589 8.87 8.87 0 0 1 2.603 6.263v7.806a.522.522 0 0 1-.334.471.545.545 0 0 1-.2.032Zm-61.841-1.026h61.349v-7.283a7.837 7.837 0 0 0-7.826-7.826h-53.523v15.109Z" data-color="1"></path>
        <path fill="#000000" d="M341.901 219.582H296.03a.514.514 0 0 1-.513-.512.525.525 0 0 1 .513-.513h45.871a.512.512 0 1 1 0 1.025Z" data-color="1"></path>
        <path fill="#000000" d="M295.896 189.959h-25.028v37.224h25.028v-37.224Z" data-color="1"></path>
        <path fill="#000000" d="M295.897 227.686h-25.028a.51.51 0 0 1-.513-.513v-37.214a.516.516 0 0 1 .513-.513h25.028a.512.512 0 0 1 .513.513v37.224a.514.514 0 0 1-.513.503Zm-24.515-1.026h24.002v-36.188h-24.002v36.188Z" data-color="1"></path>
        <path fill="#000000" d="m379.637 116.578-48.63 19.346-2.031-5.109 48.64-19.345 2.021 5.108Z" data-color="1"></path>
        <path fill="#000000" d="M331.008 136.395a.448.448 0 0 1-.206 0 .511.511 0 0 1-.277-.287l-2.051-5.128a.513.513 0 0 1 .287-.667l48.64-19.345a.507.507 0 0 1 .553.11.466.466 0 0 1 .104.167l2.051 5.128a.521.521 0 0 1-.287.667l-48.63 19.355a.382.382 0 0 1-.184 0Zm-1.365-5.344 1.652 4.165 47.676-18.925-1.641-4.103-47.687 18.863Z" data-color="1"></path>
        <path fill="#ffffff" d="m361.482 116.997-2.508.993 2.658 6.714 2.508-.993-2.658-6.714Z" data-color="2"></path>
        <path fill="#000000" d="M361.636 125.236a.473.473 0 0 1-.205 0 .525.525 0 0 1-.277-.277l-2.657-6.719a.524.524 0 0 1 .287-.667l2.513-1.025a.496.496 0 0 1 .667.277l2.657 6.718a.513.513 0 0 1-.287.667l-2.513 1.026a.637.637 0 0 1-.185 0Zm-1.99-6.934 2.277 5.785 1.559-.616-2.277-5.764-1.559.595Z" data-color="1"></path>
        <path fill="#000000" d="m349.174 119.997-21.153 8.375 3.938 9.947 21.153-8.375-3.938-9.947Z" data-color="1"></path>
        <path fill="#000000" d="M331.961 138.857a.49.49 0 0 1-.472-.328l-3.949-9.95a.51.51 0 0 1 .001-.394.49.49 0 0 1 .116-.165.49.49 0 0 1 .17-.107l21.151-8.37a.516.516 0 0 1 .39 0c.123.06.221.162.277.287l3.939 9.95a.48.48 0 0 1 0 .389.525.525 0 0 1-.277.277l-21.161 8.37a.385.385 0 0 1-.185.041Zm-3.272-10.175 3.559 8.996 20.197-8.001-3.559-8.996-20.197 8.001Z" data-color="1"></path>
        <path fill="#ffffff" d="m339.49 140.406-6.985 10.257-27.93.934-33.747 58.887s-10.473-16.063-10.473-23.746v-.225a30.569 30.569 0 0 1 5.355-17.089l30.259-44.363h35.377l8.144 15.345Z" data-color="2"></path>
        <path fill="#000000" d="M270.828 210.976a.524.524 0 0 1-.431-.235c-.431-.657-10.555-16.279-10.555-24.023v-.226a30.958 30.958 0 0 1 5.447-17.376l30.259-44.363a.512.512 0 0 1 .42-.225h35.378a.537.537 0 0 1 .451.277l8.144 15.386a.502.502 0 0 1 0 .533l-6.975 10.257a.472.472 0 0 1-.41.226l-27.695.923-33.603 58.641a.528.528 0 0 1-.43.257v-.052Zm25.407-85.422L266.13 169.66a29.99 29.99 0 0 0-5.262 16.832v.226c0 6.544 7.939 19.571 9.939 22.751l33.326-58.149a.534.534 0 0 1 .431-.257l27.695-.923 6.667-9.765-7.857-14.821h-34.834Z" data-color="1"></path>
        <path fill="#000000" d="M339.49 140.919h-53.338a.512.512 0 0 1-.362-.876.512.512 0 0 1 .362-.15h53.338a.514.514 0 1 1 0 1.026Z" data-color="1"></path>
        <path fill="#000000" d="M323.663 119.42h-17.458v5.59h17.458v-5.59Z" data-color="1"></path>
        <path fill="#000000" d="M323.663 125.513h-17.437a.512.512 0 0 1-.513-.513v-5.58a.514.514 0 0 1 .513-.513h17.437a.514.514 0 0 1 .513.513V125a.512.512 0 0 1-.513.513Zm-16.945-1.026h16.412v-4.503h-16.412v4.503Z" data-color="1"></path>
        <path fill="#000000" d="M270.982 189.528a4.44 4.44 0 0 1-3.806-6.718l17.438-29.223a4.43 4.43 0 0 1 2.73-2.134 4.447 4.447 0 0 1 3.432.476c.511.305.955.71 1.306 1.191a4.456 4.456 0 0 1 .793 3.373 4.455 4.455 0 0 1-.64 1.648l-17.438 29.223a4.465 4.465 0 0 1-3.815 2.164Z" data-color="1"></path>
        <path fill="#000000" d="M270.982 190.041a4.969 4.969 0 0 1-4.298-2.518 4.96 4.96 0 0 1 .051-4.98l17.437-29.213a4.957 4.957 0 0 1 9.195 1.235 4.96 4.96 0 0 1-.691 3.833l-17.438 29.223a4.97 4.97 0 0 1-4.256 2.42Zm17.437-38.106a3.93 3.93 0 0 0-3.364 1.898l-17.438 29.223a3.94 3.94 0 0 0 1.354 5.385 3.928 3.928 0 0 0 5.385-1.364l17.438-29.223a3.94 3.94 0 0 0-1.354-5.385 3.988 3.988 0 0 0-2.011-.534h-.01Z" data-color="1"></path>
        <path fill="#000000" d="m332.505 150.643-6.38 11.345-22.382-8.955 6.36-10.596 22.402 8.206Z" data-color="1"></path>
        <path fill="#000000" d="M326.125 162.5a.574.574 0 0 1-.185 0l-22.391-8.954a.57.57 0 0 1-.298-.318.511.511 0 0 1 .051-.421l6.36-10.606a.504.504 0 0 1 .615-.215l22.402 8.206a.502.502 0 0 1 .308.307.518.518 0 0 1 0 .431l-6.38 11.345a.513.513 0 0 1-.482.225Zm-21.633-9.693 21.407 8.565 5.867-10.432-21.437-7.857-5.837 9.724Z" data-color="1"></path>
        <path fill="#000000" d="M335.613 178.44h-35.582v2.749h35.582v-2.749Z" data-color="1"></path>
        <path fill="#000000" d="M335.613 181.712H300.03a.512.512 0 0 1-.512-.512v-2.749a.514.514 0 0 1 .512-.513h35.583a.514.514 0 0 1 .513.513v2.759a.514.514 0 0 1-.513.502Zm-35.07-1.025H335.1v-1.734h-34.557v1.734Z" data-color="1"></path>
        <path fill="#ffffff" d="M323.027 181.312h-22.996v8.247h22.996v-8.247Z" data-color="2"></path>
        <path fill="#000000" d="M323.027 190.072H300.03a.512.512 0 0 1-.512-.513v-8.206a.512.512 0 0 1 .512-.513h22.997a.515.515 0 0 1 .513.513v8.206a.514.514 0 0 1-.513.513Zm-22.484-1.026h21.971v-7.18h-21.971v7.18Z" data-color="1"></path>
        <path fill="#ffffff" d="M289.25 209.766a8.247 8.247 0 1 0 0-16.494 8.247 8.247 0 0 0 0 16.494Z" data-color="2"></path>
        <path fill="#000000" d="M289.25 210.248a8.757 8.757 0 0 1-8.591-10.468 8.756 8.756 0 0 1 6.882-6.883 8.76 8.76 0 1 1 1.709 17.351Zm0-16.483a7.737 7.737 0 0 0-7.585 9.246 7.736 7.736 0 0 0 14.021 2.777 7.736 7.736 0 0 0 1.298-4.299 7.741 7.741 0 0 0-7.734-7.652v-.072Z" data-color="1"></path>
        <path fill="#ffffff" d="M307.026 194.339a3.643 3.643 0 0 0-4.352-3.571 3.638 3.638 0 0 0-2.861 2.861 3.652 3.652 0 0 0 .207 2.104 3.643 3.643 0 0 0 7.006-1.394Z" data-color="2"></path>
        <path fill="#000000" d="M303.343 198.493a4.1 4.1 0 0 1-2.831-7.021 4.093 4.093 0 0 1 4.464-.867 4.109 4.109 0 0 1 1.834 1.511c.448.674.688 1.465.688 2.274a4.156 4.156 0 0 1-4.155 4.103Zm0-7.282a3.13 3.13 0 1 0 3.129 3.128 3.14 3.14 0 0 0-3.129-3.128Z" data-color="1"></path>
    </g>
</svg>